<svg width="720" height="176" viewBox="0 0 720 176" fill="none" xmlns="http://www.w3.org/2000/svg">
<rect x="0.5" y="17.5" width="155" height="139" rx="3.5" fill="#33334E" stroke="#E5E5E5"/>
<path d="M86 59C89.32 59 91.98 56.32 91.98 53C91.98 49.68 89.32 47 86 47C82.68 47 80 49.68 80 53C80 56.32 82.68 59 86 59ZM70 59C73.32 59 75.98 56.32 75.98 53C75.98 49.68 73.32 47 70 47C66.68 47 64 49.68 64 53C64 56.32 66.68 59 70 59ZM70 63C65.34 63 56 65.34 56 70V75H84V70C84 65.34 74.66 63 70 63ZM86 63C85.42 63 84.76 63.04 84.06 63.1C86.38 64.78 88 67.04 88 70V75H100V70C100 65.34 90.66 63 86 63Z" fill="#389961"/>
<path d="M66.3281 115H64.1484V100.551L59.7773 102.156V100.188L65.9883 97.8555H66.3281V115ZM83.8594 115H72.6797V113.441L78.5859 106.879C79.4609 105.887 80.0625 105.082 80.3906 104.465C80.7266 103.84 80.8945 103.195 80.8945 102.531C80.8945 101.641 80.625 100.91 80.0859 100.34C79.5469 99.7695 78.8281 99.4844 77.9297 99.4844C76.8516 99.4844 76.0117 99.793 75.4102 100.41C74.8164 101.02 74.5195 101.871 74.5195 102.965H72.3516C72.3516 101.395 72.8555 100.125 73.8633 99.1562C74.8789 98.1875 76.2344 97.7031 77.9297 97.7031C79.5156 97.7031 80.7695 98.1211 81.6914 98.957C82.6133 99.7852 83.0742 100.891 83.0742 102.273C83.0742 103.953 82.0039 105.953 79.8633 108.273L75.293 113.23H83.8594V115ZM96.5039 102.391C96.5039 103.242 96.2773 104 95.8242 104.664C95.3789 105.328 94.7734 105.848 94.0078 106.223C94.8984 106.605 95.6016 107.164 96.1172 107.898C96.6406 108.633 96.9023 109.465 96.9023 110.395C96.9023 111.871 96.4023 113.047 95.4023 113.922C94.4102 114.797 93.1016 115.234 91.4766 115.234C89.8359 115.234 88.5195 114.797 87.5273 113.922C86.543 113.039 86.0508 111.863 86.0508 110.395C86.0508 109.473 86.3008 108.641 86.8008 107.898C87.3086 107.156 88.0078 106.594 88.8984 106.211C88.1406 105.836 87.543 105.316 87.1055 104.652C86.668 103.988 86.4492 103.234 86.4492 102.391C86.4492 100.953 86.9102 99.8125 87.832 98.9688C88.7539 98.125 89.9688 97.7031 91.4766 97.7031C92.9766 97.7031 94.1875 98.125 95.1094 98.9688C96.0391 99.8125 96.5039 100.953 96.5039 102.391ZM94.7344 110.348C94.7344 109.395 94.4297 108.617 93.8203 108.016C93.2188 107.414 92.4297 107.113 91.4531 107.113C90.4766 107.113 89.6914 107.41 89.0977 108.004C88.5117 108.598 88.2188 109.379 88.2188 110.348C88.2188 111.316 88.5039 112.078 89.0742 112.633C89.6523 113.188 90.4531 113.465 91.4766 113.465C92.4922 113.465 93.2891 113.188 93.8672 112.633C94.4453 112.07 94.7344 111.309 94.7344 110.348ZM91.4766 99.4844C90.625 99.4844 89.9336 99.75 89.4023 100.281C88.8789 100.805 88.6172 101.52 88.6172 102.426C88.6172 103.293 88.875 103.996 89.3906 104.535C89.9141 105.066 90.6094 105.332 91.4766 105.332C92.3438 105.332 93.0352 105.066 93.5508 104.535C94.0742 103.996 94.3359 103.293 94.3359 102.426C94.3359 101.559 94.0664 100.852 93.5273 100.305C92.9883 99.7578 92.3047 99.4844 91.4766 99.4844Z" fill="#389961"/>
<path d="M65.6906 134.293C65.5852 135.195 65.2512 135.893 64.6887 136.385C64.1301 136.873 63.3859 137.117 62.4562 137.117C61.4484 137.117 60.6398 136.756 60.0305 136.033C59.425 135.311 59.1223 134.344 59.1223 133.133V132.312C59.1223 131.52 59.2629 130.822 59.5441 130.221C59.8293 129.619 60.2316 129.158 60.7512 128.838C61.2707 128.514 61.8723 128.352 62.5559 128.352C63.4621 128.352 64.1887 128.605 64.7355 129.113C65.2824 129.617 65.6008 130.316 65.6906 131.211H64.5598C64.4621 130.531 64.2492 130.039 63.9211 129.734C63.5969 129.43 63.1418 129.277 62.5559 129.277C61.8371 129.277 61.2727 129.543 60.8625 130.074C60.4562 130.605 60.2531 131.361 60.2531 132.342V133.168C60.2531 134.094 60.4465 134.83 60.8332 135.377C61.2199 135.924 61.7609 136.197 62.4562 136.197C63.0812 136.197 63.5598 136.057 63.8918 135.775C64.2277 135.49 64.4504 134.996 64.5598 134.293H65.6906ZM68.6395 137H67.5555V128H68.6395V137ZM71.9574 137H70.8734V130.66H71.9574V137ZM70.7855 128.979C70.7855 128.803 70.8383 128.654 70.9437 128.533C71.0531 128.412 71.2133 128.352 71.4242 128.352C71.6352 128.352 71.7953 128.412 71.9047 128.533C72.0141 128.654 72.0687 128.803 72.0687 128.979C72.0687 129.154 72.0141 129.301 71.9047 129.418C71.7953 129.535 71.6352 129.594 71.4242 129.594C71.2133 129.594 71.0531 129.535 70.9437 129.418C70.8383 129.301 70.7855 129.154 70.7855 128.979ZM76.7285 137.117C75.8691 137.117 75.1699 136.836 74.6309 136.273C74.0918 135.707 73.8223 134.951 73.8223 134.006V133.807C73.8223 133.178 73.9414 132.617 74.1797 132.125C74.4219 131.629 74.7578 131.242 75.1875 130.965C75.6211 130.684 76.0898 130.543 76.5938 130.543C77.418 130.543 78.0586 130.814 78.5156 131.357C78.9727 131.9 79.2012 132.678 79.2012 133.689V134.141H74.9062C74.9219 134.766 75.1035 135.271 75.4512 135.658C75.8027 136.041 76.248 136.232 76.7871 136.232C77.1699 136.232 77.4941 136.154 77.7598 135.998C78.0254 135.842 78.2578 135.635 78.457 135.377L79.1191 135.893C78.5879 136.709 77.791 137.117 76.7285 137.117ZM76.5938 131.434C76.1562 131.434 75.7891 131.594 75.4922 131.914C75.1953 132.23 75.0117 132.676 74.9414 133.25H78.1172V133.168C78.0859 132.617 77.9375 132.191 77.6719 131.891C77.4062 131.586 77.0469 131.434 76.5938 131.434ZM81.8863 130.66L81.9215 131.457C82.4059 130.848 83.0387 130.543 83.8199 130.543C85.1598 130.543 85.8355 131.299 85.8473 132.811V137H84.7633V132.805C84.7594 132.348 84.6539 132.01 84.4469 131.791C84.2438 131.572 83.9254 131.463 83.4918 131.463C83.1402 131.463 82.8316 131.557 82.566 131.744C82.3004 131.932 82.0934 132.178 81.9449 132.482V137H80.8609V130.66H81.8863ZM89.3527 129.125V130.66H90.5363V131.498H89.3527V135.43C89.3527 135.684 89.4055 135.875 89.5109 136.004C89.6164 136.129 89.7961 136.191 90.05 136.191C90.175 136.191 90.3469 136.168 90.5656 136.121V137C90.2805 137.078 90.0031 137.117 89.7336 137.117C89.2492 137.117 88.884 136.971 88.6379 136.678C88.3918 136.385 88.2687 135.969 88.2687 135.43V131.498H87.1145V130.66H88.2687V129.125H89.3527ZM95.8992 135.318C95.8992 135.025 95.7879 134.799 95.5652 134.639C95.3465 134.475 94.9617 134.334 94.4109 134.217C93.8641 134.1 93.4285 133.959 93.1043 133.795C92.784 133.631 92.5457 133.436 92.3895 133.209C92.2371 132.982 92.1609 132.713 92.1609 132.4C92.1609 131.881 92.3797 131.441 92.8172 131.082C93.2586 130.723 93.8211 130.543 94.5047 130.543C95.2234 130.543 95.8055 130.729 96.2508 131.1C96.7 131.471 96.9246 131.945 96.9246 132.523H95.8348C95.8348 132.227 95.7078 131.971 95.4539 131.756C95.2039 131.541 94.8875 131.434 94.5047 131.434C94.1102 131.434 93.8016 131.52 93.5789 131.691C93.3562 131.863 93.2449 132.088 93.2449 132.365C93.2449 132.627 93.3484 132.824 93.5555 132.957C93.7625 133.09 94.1355 133.217 94.6746 133.338C95.2176 133.459 95.657 133.604 95.993 133.771C96.3289 133.939 96.577 134.143 96.7371 134.381C96.9012 134.615 96.9832 134.902 96.9832 135.242C96.9832 135.809 96.7566 136.264 96.3035 136.607C95.8504 136.947 95.2625 137.117 94.5398 137.117C94.032 137.117 93.5828 137.027 93.1922 136.848C92.8016 136.668 92.4949 136.418 92.2723 136.098C92.0535 135.773 91.9441 135.424 91.9441 135.049H93.0281C93.0477 135.412 93.1922 135.701 93.4617 135.916C93.7352 136.127 94.0945 136.232 94.5398 136.232C94.95 136.232 95.2781 136.15 95.5242 135.986C95.7742 135.818 95.8992 135.596 95.8992 135.318Z" fill="#9E9E9E"/>
<rect x="376.5" y="17.5" width="155" height="139" rx="3.5" fill="#33334E" stroke="#E5E5E5"/>
<path d="M454 81C456.2 81 458 79.2 458 77H450C450 79.2 451.78 81 454 81ZM466 69V59C466 52.86 462.72 47.72 457 46.36V45C457 43.34 455.66 42 454 42C452.34 42 451 43.34 451 45V46.36C445.26 47.72 442 52.84 442 59V69L438 73V75H470V73L466 69Z" fill="#389961"/>
<path d="M459.859 115H448.68V113.441L454.586 106.879C455.461 105.887 456.062 105.082 456.391 104.465C456.727 103.84 456.895 103.195 456.895 102.531C456.895 101.641 456.625 100.91 456.086 100.34C455.547 99.7695 454.828 99.4844 453.93 99.4844C452.852 99.4844 452.012 99.793 451.41 100.41C450.816 101.02 450.52 101.871 450.52 102.965H448.352C448.352 101.395 448.855 100.125 449.863 99.1562C450.879 98.1875 452.234 97.7031 453.93 97.7031C455.516 97.7031 456.77 98.1211 457.691 98.957C458.613 99.7852 459.074 100.891 459.074 102.273C459.074 103.953 458.004 105.953 455.863 108.273L451.293 113.23H459.859V115Z" fill="#389961"/>
<path d="M425.251 137H424.12L419.825 130.426V137H418.695V128.469H419.825L424.132 135.072V128.469H425.251V137ZM427.192 133.771C427.192 133.15 427.313 132.592 427.555 132.096C427.802 131.6 428.141 131.217 428.575 130.947C429.012 130.678 429.511 130.543 430.069 130.543C430.932 130.543 431.63 130.842 432.161 131.439C432.696 132.037 432.964 132.832 432.964 133.824V133.9C432.964 134.518 432.845 135.072 432.606 135.564C432.372 136.053 432.034 136.434 431.593 136.707C431.155 136.98 430.651 137.117 430.081 137.117C429.221 137.117 428.524 136.818 427.989 136.221C427.458 135.623 427.192 134.832 427.192 133.848V133.771ZM428.282 133.9C428.282 134.604 428.444 135.168 428.768 135.594C429.096 136.02 429.534 136.232 430.081 136.232C430.632 136.232 431.069 136.018 431.393 135.588C431.718 135.154 431.88 134.549 431.88 133.771C431.88 133.076 431.714 132.514 431.382 132.084C431.054 131.65 430.616 131.434 430.069 131.434C429.534 131.434 429.102 131.646 428.774 132.072C428.446 132.498 428.282 133.107 428.282 133.9ZM436.194 129.125V130.66H437.377V131.498H436.194V135.43C436.194 135.684 436.246 135.875 436.352 136.004C436.457 136.129 436.637 136.191 436.891 136.191C437.016 136.191 437.188 136.168 437.407 136.121V137C437.121 137.078 436.844 137.117 436.575 137.117C436.09 137.117 435.725 136.971 435.479 136.678C435.233 136.385 435.11 135.969 435.11 135.43V131.498H433.955V130.66H435.11V129.125H436.194ZM440.227 137H439.143V130.66H440.227V137ZM439.055 128.979C439.055 128.803 439.107 128.654 439.213 128.533C439.322 128.412 439.482 128.352 439.693 128.352C439.904 128.352 440.064 128.412 440.174 128.533C440.283 128.654 440.338 128.803 440.338 128.979C440.338 129.154 440.283 129.301 440.174 129.418C440.064 129.535 439.904 129.594 439.693 129.594C439.482 129.594 439.322 129.535 439.213 129.418C439.107 129.301 439.055 129.154 439.055 128.979ZM442.73 137V131.498H441.728V130.66H442.73V130.121C442.73 129.414 442.931 128.863 443.334 128.469C443.74 128.074 444.312 127.877 445.05 127.877C445.488 127.877 446.041 127.996 446.709 128.234L446.527 129.148C446.039 128.953 445.574 128.855 445.132 128.855C444.668 128.855 444.332 128.961 444.125 129.172C443.921 129.379 443.82 129.691 443.82 130.109V130.66H445.115V131.498H443.82V137H442.73ZM447.248 137H446.158V130.66H447.248V137ZM451.954 136.232C452.341 136.232 452.679 136.115 452.968 135.881C453.257 135.646 453.417 135.354 453.448 135.002H454.474C454.454 135.365 454.329 135.711 454.099 136.039C453.868 136.367 453.56 136.629 453.173 136.824C452.79 137.02 452.384 137.117 451.954 137.117C451.091 137.117 450.404 136.83 449.892 136.256C449.384 135.678 449.13 134.889 449.13 133.889V133.707C449.13 133.09 449.243 132.541 449.47 132.061C449.696 131.58 450.021 131.207 450.443 130.941C450.868 130.676 451.37 130.543 451.948 130.543C452.659 130.543 453.249 130.756 453.718 131.182C454.191 131.607 454.443 132.16 454.474 132.84H453.448C453.417 132.43 453.261 132.094 452.98 131.832C452.702 131.566 452.359 131.434 451.948 131.434C451.398 131.434 450.97 131.633 450.665 132.031C450.364 132.426 450.214 132.998 450.214 133.748V133.953C450.214 134.684 450.364 135.246 450.665 135.641C450.966 136.035 451.396 136.232 451.954 136.232ZM460.007 137C459.944 136.875 459.893 136.652 459.854 136.332C459.35 136.855 458.749 137.117 458.05 137.117C457.425 137.117 456.911 136.941 456.509 136.59C456.11 136.234 455.911 135.785 455.911 135.242C455.911 134.582 456.161 134.07 456.661 133.707C457.165 133.34 457.872 133.156 458.782 133.156H459.837V132.658C459.837 132.279 459.723 131.979 459.497 131.756C459.27 131.529 458.936 131.416 458.495 131.416C458.108 131.416 457.784 131.514 457.522 131.709C457.261 131.904 457.13 132.141 457.13 132.418H456.04C456.04 132.102 456.151 131.797 456.374 131.504C456.6 131.207 456.905 130.973 457.288 130.801C457.675 130.629 458.098 130.543 458.559 130.543C459.29 130.543 459.862 130.727 460.276 131.094C460.69 131.457 460.905 131.959 460.921 132.6V135.518C460.921 136.1 460.995 136.562 461.143 136.906V137H460.007ZM458.208 136.174C458.548 136.174 458.87 136.086 459.175 135.91C459.479 135.734 459.7 135.506 459.837 135.225V133.924H458.987C457.659 133.924 456.995 134.312 456.995 135.09C456.995 135.43 457.108 135.695 457.335 135.887C457.561 136.078 457.852 136.174 458.208 136.174ZM464.491 129.125V130.66H465.674V131.498H464.491V135.43C464.491 135.684 464.543 135.875 464.649 136.004C464.754 136.129 464.934 136.191 465.188 136.191C465.313 136.191 465.485 136.168 465.704 136.121V137C465.418 137.078 465.141 137.117 464.871 137.117C464.387 137.117 464.022 136.971 463.776 136.678C463.53 136.385 463.407 135.969 463.407 135.43V131.498H462.252V130.66H463.407V129.125H464.491ZM468.523 137H467.439V130.66H468.523V137ZM467.352 128.979C467.352 128.803 467.404 128.654 467.51 128.533C467.619 128.412 467.779 128.352 467.99 128.352C468.201 128.352 468.361 128.412 468.471 128.533C468.58 128.654 468.635 128.803 468.635 128.979C468.635 129.154 468.58 129.301 468.471 129.418C468.361 129.535 468.201 129.594 467.99 129.594C467.779 129.594 467.619 129.535 467.51 129.418C467.404 129.301 467.352 129.154 467.352 128.979ZM470.377 133.771C470.377 133.15 470.498 132.592 470.74 132.096C470.986 131.6 471.326 131.217 471.759 130.947C472.197 130.678 472.695 130.543 473.254 130.543C474.117 130.543 474.814 130.842 475.345 131.439C475.88 132.037 476.148 132.832 476.148 133.824V133.9C476.148 134.518 476.029 135.072 475.791 135.564C475.556 136.053 475.218 136.434 474.777 136.707C474.339 136.98 473.836 137.117 473.265 137.117C472.406 137.117 471.709 136.818 471.173 136.221C470.642 135.623 470.377 134.832 470.377 133.848V133.771ZM471.466 133.9C471.466 134.604 471.629 135.168 471.953 135.594C472.281 136.02 472.718 136.232 473.265 136.232C473.816 136.232 474.254 136.018 474.578 135.588C474.902 135.154 475.064 134.549 475.064 133.771C475.064 133.076 474.898 132.514 474.566 132.084C474.238 131.65 473.8 131.434 473.254 131.434C472.718 131.434 472.287 131.646 471.959 132.072C471.63 132.498 471.466 133.107 471.466 133.9ZM478.933 130.66L478.968 131.457C479.452 130.848 480.085 130.543 480.866 130.543C482.206 130.543 482.882 131.299 482.894 132.811V137H481.81V132.805C481.806 132.348 481.7 132.01 481.493 131.791C481.29 131.572 480.972 131.463 480.538 131.463C480.187 131.463 479.878 131.557 479.613 131.744C479.347 131.932 479.14 132.178 478.991 132.482V137H477.907V130.66H478.933ZM488.62 135.318C488.62 135.025 488.509 134.799 488.286 134.639C488.067 134.475 487.682 134.334 487.132 134.217C486.585 134.1 486.149 133.959 485.825 133.795C485.505 133.631 485.266 133.436 485.11 133.209C484.958 132.982 484.882 132.713 484.882 132.4C484.882 131.881 485.1 131.441 485.538 131.082C485.979 130.723 486.542 130.543 487.225 130.543C487.944 130.543 488.526 130.729 488.971 131.1C489.421 131.471 489.645 131.945 489.645 132.523H488.555C488.555 132.227 488.429 131.971 488.175 131.756C487.925 131.541 487.608 131.434 487.225 131.434C486.831 131.434 486.522 131.52 486.3 131.691C486.077 131.863 485.966 132.088 485.966 132.365C485.966 132.627 486.069 132.824 486.276 132.957C486.483 133.09 486.856 133.217 487.395 133.338C487.938 133.459 488.378 133.604 488.714 133.771C489.05 133.939 489.298 134.143 489.458 134.381C489.622 134.615 489.704 134.902 489.704 135.242C489.704 135.809 489.477 136.264 489.024 136.607C488.571 136.947 487.983 137.117 487.261 137.117C486.753 137.117 486.304 137.027 485.913 136.848C485.522 136.668 485.216 136.418 484.993 136.098C484.774 135.773 484.665 135.424 484.665 135.049H485.749C485.768 135.412 485.913 135.701 486.182 135.916C486.456 136.127 486.815 136.232 487.261 136.232C487.671 136.232 487.999 136.15 488.245 135.986C488.495 135.818 488.62 135.596 488.62 135.318Z" fill="#979799"/>
<rect x="564.5" y="17.5" width="155" height="139" rx="3.5" fill="#33334E" stroke="#E5E5E5"/>
<path d="M649.46 43H634.54L624 53.54V68.46L634.54 79H649.46L660 68.46V53.54L649.46 43ZM642 71.6C640.56 71.6 639.4 70.44 639.4 69C639.4 67.56 640.56 66.4 642 66.4C643.44 66.4 644.6 67.56 644.6 69C644.6 70.44 643.44 71.6 642 71.6ZM644 63H640V51H644V63Z" fill="#389961"/>
<path d="M645.832 109.27H648.199V111.039H645.832V115H643.652V111.039H635.883V109.762L643.523 97.9375H645.832V109.27ZM638.344 109.27H643.652V100.902L643.395 101.371L638.344 109.27Z" fill="#389961"/>
<path d="M624.013 133.549H622.009V137H620.878V128.469H623.702C624.663 128.469 625.402 128.688 625.917 129.125C626.437 129.562 626.696 130.199 626.696 131.035C626.696 131.566 626.552 132.029 626.263 132.424C625.978 132.818 625.579 133.113 625.068 133.309L627.071 136.93V137H625.864L624.013 133.549ZM622.009 132.629H623.737C624.296 132.629 624.739 132.484 625.068 132.195C625.4 131.906 625.566 131.52 625.566 131.035C625.566 130.508 625.407 130.104 625.091 129.822C624.779 129.541 624.325 129.398 623.732 129.395H622.009V132.629ZM631.139 137.117C630.28 137.117 629.581 136.836 629.042 136.273C628.503 135.707 628.233 134.951 628.233 134.006V133.807C628.233 133.178 628.352 132.617 628.591 132.125C628.833 131.629 629.169 131.242 629.598 130.965C630.032 130.684 630.501 130.543 631.005 130.543C631.829 130.543 632.47 130.814 632.927 131.357C633.384 131.9 633.612 132.678 633.612 133.689V134.141H629.317C629.333 134.766 629.514 135.271 629.862 135.658C630.214 136.041 630.659 136.232 631.198 136.232C631.581 136.232 631.905 136.154 632.171 135.998C632.436 135.842 632.669 135.635 632.868 135.377L633.53 135.893C632.999 136.709 632.202 137.117 631.139 137.117ZM631.005 131.434C630.567 131.434 630.2 131.594 629.903 131.914C629.606 132.23 629.423 132.676 629.352 133.25H632.528V133.168C632.497 132.617 632.348 132.191 632.083 131.891C631.817 131.586 631.458 131.434 631.005 131.434ZM640.627 133.9C640.627 134.865 640.407 135.643 639.965 136.232C639.524 136.822 638.926 137.117 638.172 137.117C637.403 137.117 636.797 136.873 636.356 136.385V139.438H635.272V130.66H636.262L636.315 131.363C636.756 130.816 637.37 130.543 638.155 130.543C638.916 130.543 639.518 130.83 639.959 131.404C640.405 131.979 640.627 132.777 640.627 133.801V133.9ZM639.543 133.777C639.543 133.062 639.391 132.498 639.086 132.084C638.782 131.67 638.364 131.463 637.832 131.463C637.176 131.463 636.684 131.754 636.356 132.336V135.365C636.68 135.943 637.176 136.232 637.844 136.232C638.364 136.232 638.776 136.027 639.08 135.617C639.389 135.203 639.543 134.59 639.543 133.777ZM642.123 133.771C642.123 133.15 642.244 132.592 642.486 132.096C642.732 131.6 643.072 131.217 643.506 130.947C643.943 130.678 644.441 130.543 645 130.543C645.863 130.543 646.561 130.842 647.092 131.439C647.627 132.037 647.895 132.832 647.895 133.824V133.9C647.895 134.518 647.775 135.072 647.537 135.564C647.303 136.053 646.965 136.434 646.523 136.707C646.086 136.98 645.582 137.117 645.012 137.117C644.152 137.117 643.455 136.818 642.92 136.221C642.389 135.623 642.123 134.832 642.123 133.848V133.771ZM643.213 133.9C643.213 134.604 643.375 135.168 643.699 135.594C644.027 136.02 644.465 136.232 645.012 136.232C645.562 136.232 646 136.018 646.324 135.588C646.648 135.154 646.811 134.549 646.811 133.771C646.811 133.076 646.645 132.514 646.312 132.084C645.984 131.65 645.547 131.434 645 131.434C644.465 131.434 644.033 131.646 643.705 132.072C643.377 132.498 643.213 133.107 643.213 133.9ZM652.718 131.633C652.554 131.605 652.377 131.592 652.185 131.592C651.474 131.592 650.992 131.895 650.738 132.5V137H649.654V130.66H650.709L650.726 131.393C651.082 130.826 651.586 130.543 652.238 130.543C652.449 130.543 652.609 130.57 652.718 130.625V131.633ZM655.884 129.125V130.66H657.068V131.498H655.884V135.43C655.884 135.684 655.937 135.875 656.042 136.004C656.148 136.129 656.327 136.191 656.581 136.191C656.706 136.191 656.878 136.168 657.097 136.121V137C656.812 137.078 656.534 137.117 656.265 137.117C655.78 137.117 655.415 136.971 655.169 136.678C654.923 136.385 654.8 135.969 654.8 135.43V131.498H653.646V130.66H654.8V129.125H655.884ZM662.43 135.318C662.43 135.025 662.319 134.799 662.096 134.639C661.878 134.475 661.493 134.334 660.942 134.217C660.395 134.1 659.96 133.959 659.636 133.795C659.315 133.631 659.077 133.436 658.921 133.209C658.768 132.982 658.692 132.713 658.692 132.4C658.692 131.881 658.911 131.441 659.348 131.082C659.79 130.723 660.352 130.543 661.036 130.543C661.755 130.543 662.337 130.729 662.782 131.1C663.231 131.471 663.456 131.945 663.456 132.523H662.366C662.366 132.227 662.239 131.971 661.985 131.756C661.735 131.541 661.419 131.434 661.036 131.434C660.641 131.434 660.333 131.52 660.11 131.691C659.887 131.863 659.776 132.088 659.776 132.365C659.776 132.627 659.88 132.824 660.087 132.957C660.294 133.09 660.667 133.217 661.206 133.338C661.749 133.459 662.188 133.604 662.524 133.771C662.86 133.939 663.108 134.143 663.268 134.381C663.432 134.615 663.514 134.902 663.514 135.242C663.514 135.809 663.288 136.264 662.835 136.607C662.382 136.947 661.794 137.117 661.071 137.117C660.563 137.117 660.114 137.027 659.723 136.848C659.333 136.668 659.026 136.418 658.804 136.098C658.585 135.773 658.475 135.424 658.475 135.049H659.559C659.579 135.412 659.723 135.701 659.993 135.916C660.266 136.127 660.626 136.232 661.071 136.232C661.481 136.232 661.809 136.15 662.055 135.986C662.305 135.818 662.43 135.596 662.43 135.318Z" fill="#979799"/>
<g filter="url(#filter0_ddd)">
<rect x="188" y="17" width="156" height="140" rx="4" fill="#389961"/>
</g>
<path d="M280 43H271.64C270.8 40.68 268.6 39 266 39C263.4 39 261.2 40.68 260.36 43H252C249.8 43 248 44.8 248 47V75C248 77.2 249.8 79 252 79H280C282.2 79 284 77.2 284 75V47C284 44.8 282.2 43 280 43ZM266 43C267.1 43 268 43.9 268 45C268 46.1 267.1 47 266 47C264.9 47 264 46.1 264 45C264 43.9 264.9 43 266 43ZM262 71L254 63L256.82 60.18L262 65.34L275.18 52.16L278 55L262 71Z" fill="#33334E"/>
<path d="M257.094 105.414H258.723C259.746 105.398 260.551 105.129 261.137 104.605C261.723 104.082 262.016 103.375 262.016 102.484C262.016 100.484 261.02 99.4844 259.027 99.4844C258.09 99.4844 257.34 99.7539 256.777 100.293C256.223 100.824 255.945 101.531 255.945 102.414H253.777C253.777 101.062 254.27 99.9414 255.254 99.0508C256.246 98.1523 257.504 97.7031 259.027 97.7031C260.637 97.7031 261.898 98.1289 262.812 98.9805C263.727 99.832 264.184 101.016 264.184 102.531C264.184 103.273 263.941 103.992 263.457 104.688C262.98 105.383 262.328 105.902 261.5 106.246C262.438 106.543 263.16 107.035 263.668 107.723C264.184 108.41 264.441 109.25 264.441 110.242C264.441 111.773 263.941 112.988 262.941 113.887C261.941 114.785 260.641 115.234 259.039 115.234C257.438 115.234 256.133 114.801 255.125 113.934C254.125 113.066 253.625 111.922 253.625 110.5H255.805C255.805 111.398 256.098 112.117 256.684 112.656C257.27 113.195 258.055 113.465 259.039 113.465C260.086 113.465 260.887 113.191 261.441 112.645C261.996 112.098 262.273 111.312 262.273 110.289C262.273 109.297 261.969 108.535 261.359 108.004C260.75 107.473 259.871 107.199 258.723 107.184H257.094V105.414ZM278.598 115H267.418V113.441L273.324 106.879C274.199 105.887 274.801 105.082 275.129 104.465C275.465 103.84 275.633 103.195 275.633 102.531C275.633 101.641 275.363 100.91 274.824 100.34C274.285 99.7695 273.566 99.4844 272.668 99.4844C271.59 99.4844 270.75 99.793 270.148 100.41C269.555 101.02 269.258 101.871 269.258 102.965H267.09C267.09 101.395 267.594 100.125 268.602 99.1562C269.617 98.1875 270.973 97.7031 272.668 97.7031C274.254 97.7031 275.508 98.1211 276.43 98.957C277.352 99.7852 277.812 100.891 277.812 102.273C277.812 103.953 276.742 105.953 274.602 108.273L270.031 113.23H278.598V115Z" fill="#33334E"/>
<path d="M225.389 134.293C225.284 135.195 224.95 135.893 224.388 136.385C223.829 136.873 223.085 137.117 222.155 137.117C221.147 137.117 220.339 136.756 219.729 136.033C219.124 135.311 218.821 134.344 218.821 133.133V132.312C218.821 131.52 218.962 130.822 219.243 130.221C219.528 129.619 219.93 129.158 220.45 128.838C220.97 128.514 221.571 128.352 222.255 128.352C223.161 128.352 223.888 128.605 224.434 129.113C224.981 129.617 225.3 130.316 225.389 131.211H224.259C224.161 130.531 223.948 130.039 223.62 129.734C223.296 129.43 222.841 129.277 222.255 129.277C221.536 129.277 220.971 129.543 220.561 130.074C220.155 130.605 219.952 131.361 219.952 132.342V133.168C219.952 134.094 220.145 134.83 220.532 135.377C220.919 135.924 221.46 136.197 222.155 136.197C222.78 136.197 223.259 136.057 223.591 135.775C223.927 135.49 224.149 134.996 224.259 134.293H225.389ZM226.873 133.771C226.873 133.15 226.995 132.592 227.237 132.096C227.483 131.6 227.823 131.217 228.256 130.947C228.694 130.678 229.192 130.543 229.75 130.543C230.614 130.543 231.311 130.842 231.842 131.439C232.377 132.037 232.645 132.832 232.645 133.824V133.9C232.645 134.518 232.526 135.072 232.288 135.564C232.053 136.053 231.715 136.434 231.274 136.707C230.836 136.98 230.332 137.117 229.762 137.117C228.903 137.117 228.205 136.818 227.67 136.221C227.139 135.623 226.873 134.832 226.873 133.848V133.771ZM227.963 133.9C227.963 134.604 228.125 135.168 228.45 135.594C228.778 136.02 229.215 136.232 229.762 136.232C230.313 136.232 230.75 136.018 231.075 135.588C231.399 135.154 231.561 134.549 231.561 133.771C231.561 133.076 231.395 132.514 231.063 132.084C230.735 131.65 230.297 131.434 229.75 131.434C229.215 131.434 228.784 131.646 228.455 132.072C228.127 132.498 227.963 133.107 227.963 133.9ZM235.424 130.66L235.453 131.363C235.918 130.816 236.545 130.543 237.334 130.543C238.221 130.543 238.824 130.883 239.145 131.562C239.355 131.258 239.629 131.012 239.965 130.824C240.305 130.637 240.705 130.543 241.166 130.543C242.557 130.543 243.264 131.279 243.287 132.752V137H242.203V132.816C242.203 132.363 242.1 132.025 241.893 131.803C241.686 131.576 241.338 131.463 240.85 131.463C240.447 131.463 240.113 131.584 239.848 131.826C239.582 132.064 239.428 132.387 239.385 132.793V137H238.295V132.846C238.295 131.924 237.844 131.463 236.941 131.463C236.23 131.463 235.744 131.766 235.482 132.371V137H234.398V130.66H235.424ZM250.683 133.9C250.683 134.865 250.463 135.643 250.021 136.232C249.58 136.822 248.982 137.117 248.228 137.117C247.459 137.117 246.853 136.873 246.412 136.385V139.438H245.328V130.66H246.318L246.371 131.363C246.812 130.816 247.425 130.543 248.211 130.543C248.972 130.543 249.574 130.83 250.015 131.404C250.461 131.979 250.683 132.777 250.683 133.801V133.9ZM249.599 133.777C249.599 133.062 249.447 132.498 249.142 132.084C248.838 131.67 248.42 131.463 247.888 131.463C247.232 131.463 246.74 131.754 246.412 132.336V135.365C246.736 135.943 247.232 136.232 247.9 136.232C248.42 136.232 248.832 136.027 249.136 135.617C249.445 135.203 249.599 134.59 249.599 133.777ZM253.644 137H252.56V128H253.644V137ZM258.415 137.117C257.555 137.117 256.856 136.836 256.317 136.273C255.778 135.707 255.509 134.951 255.509 134.006V133.807C255.509 133.178 255.628 132.617 255.866 132.125C256.108 131.629 256.444 131.242 256.874 130.965C257.307 130.684 257.776 130.543 258.28 130.543C259.104 130.543 259.745 130.814 260.202 131.357C260.659 131.9 260.888 132.678 260.888 133.689V134.141H256.593C256.608 134.766 256.79 135.271 257.138 135.658C257.489 136.041 257.934 136.232 258.473 136.232C258.856 136.232 259.18 136.154 259.446 135.998C259.712 135.842 259.944 135.635 260.143 135.377L260.805 135.893C260.274 136.709 259.477 137.117 258.415 137.117ZM258.28 131.434C257.843 131.434 257.475 131.594 257.179 131.914C256.882 132.23 256.698 132.676 256.628 133.25H259.804V133.168C259.772 132.617 259.624 132.191 259.358 131.891C259.093 131.586 258.733 131.434 258.28 131.434ZM264.018 129.125V130.66H265.202V131.498H264.018V135.43C264.018 135.684 264.071 135.875 264.176 136.004C264.282 136.129 264.461 136.191 264.715 136.191C264.84 136.191 265.012 136.168 265.231 136.121V137C264.946 137.078 264.668 137.117 264.399 137.117C263.914 137.117 263.549 136.971 263.303 136.678C263.057 136.385 262.934 135.969 262.934 135.43V131.498H261.78V130.66H262.934V129.125H264.018ZM269.504 137.117C268.645 137.117 267.945 136.836 267.406 136.273C266.867 135.707 266.598 134.951 266.598 134.006V133.807C266.598 133.178 266.717 132.617 266.955 132.125C267.197 131.629 267.533 131.242 267.963 130.965C268.396 130.684 268.865 130.543 269.369 130.543C270.193 130.543 270.834 130.814 271.291 131.357C271.748 131.9 271.977 132.678 271.977 133.689V134.141H267.682C267.697 134.766 267.879 135.271 268.227 135.658C268.578 136.041 269.023 136.232 269.562 136.232C269.945 136.232 270.27 136.154 270.535 135.998C270.801 135.842 271.033 135.635 271.232 135.377L271.895 135.893C271.363 136.709 270.566 137.117 269.504 137.117ZM269.369 131.434C268.932 131.434 268.564 131.594 268.268 131.914C267.971 132.23 267.787 132.676 267.717 133.25H270.893V133.168C270.861 132.617 270.713 132.191 270.447 131.891C270.182 131.586 269.822 131.434 269.369 131.434ZM273.373 133.777C273.373 132.805 273.603 132.023 274.064 131.434C274.525 130.84 275.129 130.543 275.875 130.543C276.617 130.543 277.205 130.797 277.638 131.305V128H278.722V137H277.726L277.673 136.32C277.24 136.852 276.636 137.117 275.863 137.117C275.129 137.117 274.529 136.816 274.064 136.215C273.603 135.613 273.373 134.828 273.373 133.859V133.777ZM274.457 133.9C274.457 134.619 274.605 135.182 274.902 135.588C275.199 135.994 275.609 136.197 276.132 136.197C276.82 136.197 277.322 135.889 277.638 135.271V132.359C277.314 131.762 276.816 131.463 276.144 131.463C275.613 131.463 275.199 131.668 274.902 132.078C274.605 132.488 274.457 133.096 274.457 133.9ZM285.657 129.125V130.66H286.841V131.498H285.657V135.43C285.657 135.684 285.71 135.875 285.815 136.004C285.921 136.129 286.1 136.191 286.354 136.191C286.479 136.191 286.651 136.168 286.87 136.121V137C286.585 137.078 286.307 137.117 286.038 137.117C285.554 137.117 285.188 136.971 284.942 136.678C284.696 136.385 284.573 135.969 284.573 135.43V131.498H283.419V130.66H284.573V129.125H285.657ZM292.426 137C292.364 136.875 292.313 136.652 292.274 136.332C291.77 136.855 291.168 137.117 290.469 137.117C289.844 137.117 289.33 136.941 288.928 136.59C288.53 136.234 288.33 135.785 288.33 135.242C288.33 134.582 288.58 134.07 289.08 133.707C289.584 133.34 290.291 133.156 291.202 133.156H292.256V132.658C292.256 132.279 292.143 131.979 291.916 131.756C291.69 131.529 291.356 131.416 290.914 131.416C290.528 131.416 290.204 131.514 289.942 131.709C289.68 131.904 289.549 132.141 289.549 132.418H288.459C288.459 132.102 288.571 131.797 288.793 131.504C289.02 131.207 289.325 130.973 289.707 130.801C290.094 130.629 290.518 130.543 290.979 130.543C291.709 130.543 292.282 130.727 292.696 131.094C293.11 131.457 293.325 131.959 293.34 132.6V135.518C293.34 136.1 293.414 136.562 293.563 136.906V137H292.426ZM290.627 136.174C290.967 136.174 291.289 136.086 291.594 135.91C291.899 135.734 292.12 135.506 292.256 135.225V133.924H291.407C290.079 133.924 289.414 134.312 289.414 135.09C289.414 135.43 289.528 135.695 289.754 135.887C289.981 136.078 290.272 136.174 290.627 136.174ZM299.131 135.318C299.131 135.025 299.02 134.799 298.797 134.639C298.578 134.475 298.193 134.334 297.643 134.217C297.096 134.1 296.66 133.959 296.336 133.795C296.016 133.631 295.777 133.436 295.621 133.209C295.469 132.982 295.393 132.713 295.393 132.4C295.393 131.881 295.611 131.441 296.049 131.082C296.49 130.723 297.053 130.543 297.736 130.543C298.455 130.543 299.037 130.729 299.482 131.1C299.932 131.471 300.156 131.945 300.156 132.523H299.066C299.066 132.227 298.939 131.971 298.686 131.756C298.436 131.541 298.119 131.434 297.736 131.434C297.342 131.434 297.033 131.52 296.811 131.691C296.588 131.863 296.477 132.088 296.477 132.365C296.477 132.627 296.58 132.824 296.787 132.957C296.994 133.09 297.367 133.217 297.906 133.338C298.449 133.459 298.889 133.604 299.225 133.771C299.561 133.939 299.809 134.143 299.969 134.381C300.133 134.615 300.215 134.902 300.215 135.242C300.215 135.809 299.988 136.264 299.535 136.607C299.082 136.947 298.494 137.117 297.771 137.117C297.264 137.117 296.814 137.027 296.424 136.848C296.033 136.668 295.727 136.418 295.504 136.098C295.285 135.773 295.176 135.424 295.176 135.049H296.26C296.279 135.412 296.424 135.701 296.693 135.916C296.967 136.127 297.326 136.232 297.771 136.232C298.182 136.232 298.51 136.15 298.756 135.986C299.006 135.818 299.131 135.596 299.131 135.318ZM303.796 134.064L303.117 134.773V137H302.033V128H303.117V133.443L303.697 132.746L305.671 130.66H306.99L304.523 133.309L307.277 137H306.005L303.796 134.064ZM312.2 135.318C312.2 135.025 312.089 134.799 311.866 134.639C311.648 134.475 311.263 134.334 310.712 134.217C310.165 134.1 309.73 133.959 309.405 133.795C309.085 133.631 308.847 133.436 308.691 133.209C308.538 132.982 308.462 132.713 308.462 132.4C308.462 131.881 308.681 131.441 309.118 131.082C309.56 130.723 310.122 130.543 310.806 130.543C311.525 130.543 312.107 130.729 312.552 131.1C313.001 131.471 313.226 131.945 313.226 132.523H312.136C312.136 132.227 312.009 131.971 311.755 131.756C311.505 131.541 311.189 131.434 310.806 131.434C310.411 131.434 310.103 131.52 309.88 131.691C309.657 131.863 309.546 132.088 309.546 132.365C309.546 132.627 309.65 132.824 309.857 132.957C310.064 133.09 310.437 133.217 310.976 133.338C311.519 133.459 311.958 133.604 312.294 133.771C312.63 133.939 312.878 134.143 313.038 134.381C313.202 134.615 313.284 134.902 313.284 135.242C313.284 135.809 313.058 136.264 312.605 136.607C312.152 136.947 311.564 137.117 310.841 137.117C310.333 137.117 309.884 137.027 309.493 136.848C309.103 136.668 308.796 136.418 308.573 136.098C308.355 135.773 308.245 135.424 308.245 135.049H309.329C309.349 135.412 309.493 135.701 309.763 135.916C310.036 136.127 310.396 136.232 310.841 136.232C311.251 136.232 311.579 136.15 311.825 135.986C312.075 135.818 312.2 135.596 312.2 135.318Z" fill="#389961"/>
<defs>
<filter id="filter0_ddd" x="170" y="0" width="192" height="176" filterUnits="userSpaceOnUse" color-interpolation-filters="sRGB">
<feFlood flood-opacity="0" result="BackgroundImageFix"/>
<feColorMatrix in="SourceAlpha" type="matrix" values="0 0 0 0 0 0 0 0 0 0 0 0 0 0 0 0 0 0 127 0"/>
<feOffset dy="6"/>
<feGaussianBlur stdDeviation="5"/>
<feColorMatrix type="matrix" values="0 0 0 0 0 0 0 0 0 0 0 0 0 0 0 0 0 0 0.14 0"/>
<feBlend mode="normal" in2="BackgroundImageFix" result="effect1_dropShadow"/>
<feColorMatrix in="SourceAlpha" type="matrix" values="0 0 0 0 0 0 0 0 0 0 0 0 0 0 0 0 0 0 127 0"/>
<feOffset dy="1"/>
<feGaussianBlur stdDeviation="9"/>
<feColorMatrix type="matrix" values="0 0 0 0 0 0 0 0 0 0 0 0 0 0 0 0 0 0 0.12 0"/>
<feBlend mode="normal" in2="effect1_dropShadow" result="effect2_dropShadow"/>
<feColorMatrix in="SourceAlpha" type="matrix" values="0 0 0 0 0 0 0 0 0 0 0 0 0 0 0 0 0 0 127 0"/>
<feOffset dy="3"/>
<feGaussianBlur stdDeviation="2.5"/>
<feColorMatrix type="matrix" values="0 0 0 0 0 0 0 0 0 0 0 0 0 0 0 0 0 0 0.2 0"/>
<feBlend mode="normal" in2="effect2_dropShadow" result="effect3_dropShadow"/>
<feBlend mode="normal" in="SourceGraphic" in2="effect3_dropShadow" result="shape"/>
</filter>
</defs>
</svg>
