<svg width="22" height="17" viewBox="0 0 22 17" fill="none" xmlns="http://www.w3.org/2000/svg">
<path d="M15.4365 16.4131C17.2779 16.4459 18.7959 14.981 18.8287 13.1396C18.8615 11.2983 17.3966 9.78025 15.5552 9.74745C14.0388 9.72044 12.7418 10.71 12.3131 12.0859C11.6428 12.049 11.1289 11.8898 10.784 11.6003C9.99554 10.9445 9.88739 9.52981 9.77655 8.03176C9.68916 6.85502 9.59418 5.63647 9.13283 4.63226L15.1319 4.73912C15.5327 6.10064 16.7776 7.10214 18.269 7.1287C20.1104 7.1615 21.6284 5.69664 21.6612 3.85527C21.694 2.01389 20.2291 0.495894 18.3877 0.463093C16.8963 0.436527 15.6165 1.39305 15.1675 2.73944L6.86465 2.59154C6.45966 1.22994 5.2148 0.228444 3.72337 0.201877C1.882 0.169076 0.364003 1.63394 0.331202 3.47531C0.298402 5.31669 1.76326 6.83469 3.60464 6.86749C5.02108 6.89272 6.24912 6.03112 6.75048 4.78985C6.96481 4.92286 7.15296 5.12207 7.29766 5.42053C7.62725 6.10151 7.70095 7.11131 7.78186 8.18376C7.91302 9.94471 8.06502 11.9394 9.50219 13.1402C10.2167 13.7363 11.1446 14.0487 12.3149 14.0904C12.7414 15.4149 13.9701 16.3869 15.4365 16.4131ZM18.9949 3.80777C18.9884 4.17438 18.6831 4.46899 18.3165 4.46246C17.9499 4.45593 17.6553 4.15063 17.6618 3.78402C17.6683 3.41742 17.9736 3.12281 18.3402 3.12934C18.7068 3.13587 19.0014 3.44116 18.9949 3.80777ZM2.99745 3.52281C3.00398 3.1562 3.30927 2.86159 3.67588 2.86812C4.04249 2.87465 4.3371 3.17995 4.33057 3.54655C4.32404 3.91316 4.01874 4.20777 3.65213 4.20124C3.28552 4.19471 2.99092 3.88942 2.99745 3.52281ZM16.1624 13.0921C16.1559 13.4587 15.8506 13.7533 15.484 13.7468C15.1174 13.7403 14.8228 13.435 14.8293 13.0684C14.8358 12.7018 15.1411 12.4072 15.5077 12.4137C15.8744 12.4202 16.169 12.7255 16.1624 13.0921Z" fill="#5DB481"/>
</svg>
