<svg width="368" height="384" viewBox="0 0 368 384" fill="none" xmlns="http://www.w3.org/2000/svg">
<rect width="368" height="384" rx="4" fill="#33334E"/>
<path d="M31.41 40.59L26.83 36L31.41 31.41L30 30L24 36L30 42L31.41 40.59Z" fill="#389961" fill-opacity="0.53"/>
<path d="M157.94 38.6826H154.085L153.278 41H151.48L155.24 31.0469H156.792L160.559 41H158.754L157.94 38.6826ZM154.57 37.2881H157.455L156.013 33.1592L154.57 37.2881ZM167.782 37.377C167.782 38.5208 167.522 39.4346 167.002 40.1182C166.483 40.7972 165.786 41.1367 164.911 41.1367C164.099 41.1367 163.45 40.8701 162.962 40.3369V43.8438H161.301V33.6035H162.832L162.901 34.3555C163.388 33.763 164.051 33.4668 164.89 33.4668C165.792 33.4668 166.499 33.804 167.009 34.4785C167.524 35.1484 167.782 36.0804 167.782 37.2744V37.377ZM166.127 37.2334C166.127 36.4951 165.979 35.9095 165.683 35.4766C165.391 35.0436 164.972 34.8271 164.425 34.8271C163.746 34.8271 163.259 35.1074 162.962 35.668V38.9492C163.263 39.5234 163.755 39.8105 164.439 39.8105C164.968 39.8105 165.38 39.5986 165.676 39.1748C165.977 38.7464 166.127 38.0993 166.127 37.2334ZM173.166 35.1211C172.947 35.0846 172.721 35.0664 172.489 35.0664C171.728 35.0664 171.215 35.3581 170.951 35.9414V41H169.29V33.6035H170.876L170.917 34.4307C171.318 33.7881 171.874 33.4668 172.585 33.4668C172.822 33.4668 173.018 33.4987 173.173 33.5625L173.166 35.1211ZM176.082 41H174.421V33.6035H176.082V41ZM174.319 31.6826C174.319 31.4274 174.398 31.2155 174.558 31.0469C174.722 30.8783 174.954 30.7939 175.255 30.7939C175.556 30.7939 175.788 30.8783 175.952 31.0469C176.116 31.2155 176.198 31.4274 176.198 31.6826C176.198 31.9333 176.116 32.1429 175.952 32.3115C175.788 32.4756 175.556 32.5576 175.255 32.5576C174.954 32.5576 174.722 32.4756 174.558 32.3115C174.398 32.1429 174.319 31.9333 174.319 31.6826ZM179.764 41H178.103V30.5H179.764V41ZM191.852 41H185.16V39.8584L188.475 36.2422C188.954 35.709 189.293 35.2646 189.494 34.9092C189.699 34.5492 189.801 34.1891 189.801 33.8291C189.801 33.3551 189.667 32.9723 189.398 32.6807C189.134 32.389 188.776 32.2432 188.325 32.2432C187.787 32.2432 187.37 32.4072 187.074 32.7354C186.777 33.0635 186.629 33.5124 186.629 34.082H184.968C184.968 33.4759 185.105 32.9313 185.378 32.4482C185.656 31.9606 186.051 31.5824 186.561 31.3135C187.076 31.0446 187.668 30.9102 188.338 30.9102C189.304 30.9102 190.066 31.154 190.621 31.6416C191.182 32.1247 191.462 32.7946 191.462 33.6514C191.462 34.1481 191.321 34.6699 191.038 35.2168C190.76 35.7591 190.302 36.3766 189.664 37.0693L187.231 39.6738H191.852V41ZM199.704 36.8096C199.704 38.2406 199.435 39.3206 198.897 40.0498C198.364 40.7744 197.551 41.1367 196.457 41.1367C195.381 41.1367 194.57 40.7835 194.023 40.0771C193.481 39.3662 193.203 38.3158 193.189 36.9258V35.2031C193.189 33.7721 193.456 32.6989 193.989 31.9834C194.527 31.2679 195.345 30.9102 196.443 30.9102C197.532 30.9102 198.344 31.2588 198.877 31.9561C199.415 32.6533 199.69 33.6969 199.704 35.0869V36.8096ZM198.043 34.9502C198.043 34.016 197.915 33.3324 197.66 32.8994C197.405 32.4619 196.999 32.2432 196.443 32.2432C195.901 32.2432 195.502 32.4505 195.247 32.8652C194.992 33.2754 194.857 33.918 194.844 34.793V37.0488C194.844 37.9785 194.973 38.6712 195.233 39.127C195.493 39.5827 195.901 39.8105 196.457 39.8105C196.99 39.8105 197.384 39.6009 197.639 39.1816C197.895 38.7578 198.029 38.097 198.043 37.1992V34.9502ZM207.966 41H201.274V39.8584L204.589 36.2422C205.068 35.709 205.407 35.2646 205.608 34.9092C205.813 34.5492 205.915 34.1891 205.915 33.8291C205.915 33.3551 205.781 32.9723 205.512 32.6807C205.248 32.389 204.89 32.2432 204.439 32.2432C203.901 32.2432 203.484 32.4072 203.188 32.7354C202.891 33.0635 202.743 33.5124 202.743 34.082H201.082C201.082 33.4759 201.219 32.9313 201.492 32.4482C201.77 31.9606 202.165 31.5824 202.675 31.3135C203.19 31.0446 203.782 30.9102 204.452 30.9102C205.418 30.9102 206.18 31.154 206.736 31.6416C207.296 32.1247 207.576 32.7946 207.576 33.6514C207.576 34.1481 207.435 34.6699 207.153 35.2168C206.875 35.7591 206.417 36.3766 205.779 37.0693L203.345 39.6738H207.966V41ZM213.829 41H212.174V33.0088L209.734 33.8428V32.4414L213.617 31.0127H213.829V41Z" fill="#389961"/>
<path d="M336.59 40.59L341.17 36L336.59 31.41L338 30L344 36L338 42L336.59 40.59Z" fill="#389961" fill-opacity="0.53"/>
<path d="M29.7008 78.7578L32.0748 85.4609L34.4361 78.7578H36.9371V88H35.0265V85.4736L35.2169 81.1128L32.7223 88H31.4146L28.9264 81.1191L29.1168 85.4736V88H27.2125V78.7578H29.7008ZM38.5939 84.5024C38.5939 83.8211 38.7251 83.2139 38.9875 82.6807C39.2499 82.1475 39.6265 81.7349 40.1174 81.4429C40.6125 81.1509 41.1859 81.0049 41.8376 81.0049C42.7644 81.0049 43.5197 81.2884 44.1037 81.8555C44.6919 82.4225 45.0199 83.1927 45.0876 84.166L45.1003 84.6357C45.1003 85.6895 44.8062 86.5358 44.218 87.1748C43.6298 87.8096 42.8405 88.127 41.8503 88.127C40.8601 88.127 40.0687 87.8096 39.4763 87.1748C38.8881 86.54 38.5939 85.6768 38.5939 84.585V84.5024ZM40.4284 84.6357C40.4284 85.2874 40.5511 85.7868 40.7966 86.1338C41.042 86.4766 41.3933 86.6479 41.8503 86.6479C42.2946 86.6479 42.6416 86.4787 42.8913 86.1401C43.141 85.7974 43.2658 85.2515 43.2658 84.5024C43.2658 83.8634 43.141 83.3683 42.8913 83.0171C42.6416 82.6659 42.2904 82.4902 41.8376 82.4902C41.389 82.4902 41.042 82.6659 40.7966 83.0171C40.5511 83.3641 40.4284 83.9036 40.4284 84.6357ZM48.3187 81.1318L48.3758 81.9253C48.8667 81.3117 49.5247 81.0049 50.3499 81.0049C51.0778 81.0049 51.6194 81.2186 51.9749 81.646C52.3304 82.0734 52.5123 82.7124 52.5208 83.563V88H50.6863V83.6074C50.6863 83.2181 50.6017 82.9367 50.4324 82.7632C50.2631 82.5854 49.9817 82.4966 49.5882 82.4966C49.0719 82.4966 48.6847 82.7166 48.4266 83.1567V88H46.5921V81.1318H48.3187Z" fill="#E9E9E9" fill-opacity="0.6"/>
<path d="M84.2135 80.3003H81.3824V88H79.4781V80.3003H76.6852V78.7578H84.2135V80.3003ZM89.279 87.3018C88.8262 87.8519 88.1999 88.127 87.4001 88.127C86.6638 88.127 86.1009 87.9154 85.7116 87.4922C85.3265 87.069 85.1298 86.4491 85.1213 85.6323V81.1318H86.9558V85.5688C86.9558 86.284 87.2816 86.6416 87.9333 86.6416C88.5554 86.6416 88.9828 86.4258 89.2155 85.9941V81.1318H91.0563V88H89.3298L89.279 87.3018ZM96.0013 88.127C94.9941 88.127 94.1731 87.818 93.5384 87.2002C92.9078 86.5824 92.5926 85.7593 92.5926 84.731V84.5532C92.5926 83.8634 92.7259 83.2477 92.9925 82.7061C93.2591 82.1602 93.6357 81.7412 94.1224 81.4492C94.6132 81.153 95.1718 81.0049 95.7981 81.0049C96.7376 81.0049 97.476 81.3011 98.0135 81.8936C98.5551 82.486 98.826 83.326 98.826 84.4136V85.1626H94.4524C94.5117 85.6112 94.6894 85.9709 94.9856 86.2417C95.2861 86.5125 95.6648 86.6479 96.1219 86.6479C96.8286 86.6479 97.3808 86.3919 97.7786 85.8799L98.68 86.8892C98.4049 87.2785 98.0325 87.5832 97.5628 87.8032C97.0931 88.019 96.5726 88.127 96.0013 88.127ZM95.7918 82.4902C95.4279 82.4902 95.1316 82.613 94.9031 82.8584C94.6788 83.1038 94.535 83.4551 94.4715 83.9121H97.0232V83.7661C97.0148 83.3599 96.9048 83.0467 96.6932 82.8267C96.4816 82.6024 96.1811 82.4902 95.7918 82.4902Z" fill="#E9E9E9" fill-opacity="0.6"/>
<path d="M130.658 85.334L131.902 78.7578H133.8L131.75 88H129.833L128.329 81.8174L126.824 88H124.907L122.857 78.7578H124.755L126.005 85.3213L127.529 78.7578H129.141L130.658 85.334ZM138.072 88.127C137.065 88.127 136.244 87.818 135.61 87.2002C134.979 86.5824 134.664 85.7593 134.664 84.731V84.5532C134.664 83.8634 134.797 83.2477 135.064 82.7061C135.33 82.1602 135.707 81.7412 136.194 81.4492C136.684 81.153 137.243 81.0049 137.869 81.0049C138.809 81.0049 139.547 81.3011 140.085 81.8936C140.626 82.486 140.897 83.326 140.897 84.4136V85.1626H136.524C136.583 85.6112 136.761 85.9709 137.057 86.2417C137.357 86.5125 137.736 86.6479 138.193 86.6479C138.9 86.6479 139.452 86.3919 139.85 85.8799L140.751 86.8892C140.476 87.2785 140.104 87.5832 139.634 87.8032C139.164 88.019 138.644 88.127 138.072 88.127ZM137.863 82.4902C137.499 82.4902 137.203 82.613 136.974 82.8584C136.75 83.1038 136.606 83.4551 136.543 83.9121H139.094V83.7661C139.086 83.3599 138.976 83.0467 138.764 82.8267C138.553 82.6024 138.252 82.4902 137.863 82.4902ZM142.059 84.5151C142.059 83.4445 142.298 82.5918 142.776 81.957C143.259 81.3223 143.917 81.0049 144.75 81.0049C145.419 81.0049 145.971 81.2546 146.407 81.7539V78.25H148.248V88H146.591L146.502 87.27C146.045 87.8413 145.457 88.127 144.738 88.127C143.929 88.127 143.28 87.8096 142.789 87.1748C142.302 86.5358 142.059 85.6493 142.059 84.5151ZM143.893 84.6484C143.893 85.2917 144.006 85.7847 144.23 86.1274C144.454 86.4702 144.78 86.6416 145.207 86.6416C145.774 86.6416 146.174 86.4025 146.407 85.9243V83.2139C146.179 82.7357 145.783 82.4966 145.22 82.4966C144.336 82.4966 143.893 83.2139 143.893 84.6484Z" fill="#E9E9E9" fill-opacity="0.6"/>
<path d="M179.883 80.3003H177.052V88H175.148V80.3003H172.355V78.7578H179.883V80.3003ZM183.045 81.8809C183.531 81.2969 184.143 81.0049 184.879 81.0049C186.369 81.0049 187.124 81.8703 187.145 83.6011V88H185.311V83.6519C185.311 83.2583 185.226 82.9684 185.057 82.7822C184.888 82.5918 184.606 82.4966 184.213 82.4966C183.675 82.4966 183.286 82.7039 183.045 83.1187V88H181.21V78.25H183.045V81.8809ZM193.042 87.3018C192.589 87.8519 191.963 88.127 191.163 88.127C190.427 88.127 189.864 87.9154 189.475 87.4922C189.09 87.069 188.893 86.4491 188.885 85.6323V81.1318H190.719V85.5688C190.719 86.284 191.045 86.6416 191.697 86.6416C192.319 86.6416 192.746 86.4258 192.979 85.9941V81.1318H194.82V88H193.093L193.042 87.3018Z" fill="#E9E9E9" fill-opacity="0.6"/>
<path d="M230.207 84.2231H226.55V88H224.646V78.7578H230.664V80.3003H226.55V82.687H230.207V84.2231ZM235.742 82.8521C235.492 82.8182 235.272 82.8013 235.082 82.8013C234.388 82.8013 233.933 83.0361 233.717 83.5059V88H231.883V81.1318H233.615L233.666 81.9507C234.034 81.3201 234.544 81.0049 235.196 81.0049C235.399 81.0049 235.59 81.0324 235.767 81.0874L235.742 82.8521ZM238.967 88H237.126V81.1318H238.967V88ZM237.018 79.3545C237.018 79.0794 237.109 78.853 237.291 78.6753C237.477 78.4976 237.729 78.4087 238.046 78.4087C238.359 78.4087 238.609 78.4976 238.795 78.6753C238.981 78.853 239.075 79.0794 239.075 79.3545C239.075 79.6338 238.979 79.8623 238.789 80.04C238.603 80.2178 238.355 80.3066 238.046 80.3066C237.737 80.3066 237.488 80.2178 237.297 80.04C237.111 79.8623 237.018 79.6338 237.018 79.3545Z" fill="#E9E9E9" fill-opacity="0.6"/>
<path d="M275.337 85.5752C275.337 85.2155 275.211 84.9404 274.957 84.75C274.703 84.5553 274.246 84.3522 273.586 84.1406C272.925 83.9248 272.403 83.7132 272.018 83.5059C270.968 82.9388 270.443 82.175 270.443 81.2144C270.443 80.715 270.583 80.2707 270.862 79.8813C271.146 79.4878 271.55 79.181 272.075 78.9609C272.604 78.7409 273.196 78.6309 273.852 78.6309C274.512 78.6309 275.101 78.7515 275.617 78.9927C276.133 79.2297 276.533 79.5661 276.817 80.002C277.104 80.4378 277.248 80.9329 277.248 81.4873H275.344C275.344 81.0641 275.211 80.7362 274.944 80.5034C274.677 80.2664 274.303 80.1479 273.82 80.1479C273.355 80.1479 272.993 80.2474 272.735 80.4463C272.477 80.641 272.348 80.8991 272.348 81.2207C272.348 81.5212 272.498 81.7729 272.798 81.9761C273.103 82.1792 273.55 82.3696 274.138 82.5474C275.221 82.8732 276.01 83.2773 276.505 83.7598C277.001 84.2422 277.248 84.8431 277.248 85.5625C277.248 86.3623 276.946 86.9907 276.34 87.4478C275.735 87.9006 274.921 88.127 273.897 88.127C273.186 88.127 272.538 87.9979 271.954 87.7397C271.37 87.4774 270.924 87.1198 270.615 86.667C270.31 86.2142 270.158 85.6895 270.158 85.0928H272.068C272.068 86.1126 272.678 86.6226 273.897 86.6226C274.349 86.6226 274.703 86.5316 274.957 86.3496C275.211 86.1634 275.337 85.9053 275.337 85.5752ZM282.802 88C282.718 87.835 282.656 87.6297 282.618 87.3843C282.174 87.8794 281.596 88.127 280.885 88.127C280.213 88.127 279.654 87.9323 279.21 87.543C278.77 87.1536 278.55 86.6628 278.55 86.0703C278.55 85.3424 278.818 84.7839 279.356 84.3945C279.897 84.0052 280.678 83.8084 281.698 83.8042H282.542V83.4106C282.542 83.0933 282.46 82.8394 282.295 82.6489C282.134 82.4585 281.878 82.3633 281.527 82.3633C281.218 82.3633 280.974 82.4373 280.797 82.5854C280.623 82.7336 280.536 82.9367 280.536 83.1948H278.702C278.702 82.797 278.825 82.4289 279.07 82.0903C279.315 81.7518 279.662 81.4873 280.111 81.2969C280.56 81.1022 281.063 81.0049 281.622 81.0049C282.468 81.0049 283.139 81.2186 283.634 81.646C284.133 82.0692 284.383 82.6659 284.383 83.436V86.4131C284.387 87.0648 284.478 87.5578 284.656 87.8921V88H282.802ZM281.285 86.7241C281.556 86.7241 281.806 86.6649 282.034 86.5464C282.263 86.4237 282.432 86.2607 282.542 86.0576V84.877H281.857C280.938 84.877 280.45 85.1943 280.39 85.8291L280.384 85.937C280.384 86.1655 280.464 86.3538 280.625 86.502C280.786 86.6501 281.006 86.7241 281.285 86.7241ZM288.388 79.4434V81.1318H289.563V82.4775H288.388V85.9053C288.388 86.1592 288.437 86.3411 288.534 86.4512C288.632 86.5612 288.818 86.6162 289.093 86.6162C289.296 86.6162 289.476 86.6014 289.633 86.5718V87.9619C289.273 88.0719 288.903 88.127 288.522 88.127C287.235 88.127 286.579 87.4774 286.554 86.1782V82.4775H285.551V81.1318H286.554V79.4434H288.388Z" fill="#E9E9E9" fill-opacity="0.6"/>
<path d="M321.738 85.5752C321.738 85.2155 321.611 84.9404 321.357 84.75C321.103 84.5553 320.646 84.3522 319.986 84.1406C319.326 83.9248 318.803 83.7132 318.418 83.5059C317.369 82.9388 316.844 82.175 316.844 81.2144C316.844 80.715 316.983 80.2707 317.263 79.8813C317.546 79.4878 317.95 79.181 318.475 78.9609C319.004 78.7409 319.597 78.6309 320.253 78.6309C320.913 78.6309 321.501 78.7515 322.017 78.9927C322.533 79.2297 322.933 79.5661 323.217 80.002C323.505 80.4378 323.649 80.9329 323.649 81.4873H321.744C321.744 81.0641 321.611 80.7362 321.344 80.5034C321.078 80.2664 320.703 80.1479 320.221 80.1479C319.755 80.1479 319.393 80.2474 319.135 80.4463C318.877 80.641 318.748 80.8991 318.748 81.2207C318.748 81.5212 318.898 81.7729 319.199 81.9761C319.504 82.1792 319.95 82.3696 320.538 82.5474C321.622 82.8732 322.411 83.2773 322.906 83.7598C323.401 84.2422 323.649 84.8431 323.649 85.5625C323.649 86.3623 323.346 86.9907 322.741 87.4478C322.136 87.9006 321.321 88.127 320.297 88.127C319.586 88.127 318.939 87.9979 318.355 87.7397C317.771 87.4774 317.324 87.1198 317.015 86.667C316.711 86.2142 316.558 85.6895 316.558 85.0928H318.469C318.469 86.1126 319.078 86.6226 320.297 86.6226C320.75 86.6226 321.103 86.5316 321.357 86.3496C321.611 86.1634 321.738 85.9053 321.738 85.5752ZM329.336 87.3018C328.883 87.8519 328.257 88.127 327.457 88.127C326.721 88.127 326.158 87.9154 325.769 87.4922C325.384 87.069 325.187 86.4491 325.178 85.6323V81.1318H327.013V85.5688C327.013 86.284 327.339 86.6416 327.99 86.6416C328.612 86.6416 329.04 86.4258 329.273 85.9941V81.1318H331.113V88H329.387L329.336 87.3018ZM334.586 81.1318L334.643 81.9253C335.134 81.3117 335.792 81.0049 336.617 81.0049C337.345 81.0049 337.887 81.2186 338.242 81.646C338.597 82.0734 338.779 82.7124 338.788 83.563V88H336.953V83.6074C336.953 83.2181 336.869 82.9367 336.7 82.7632C336.53 82.5854 336.249 82.4966 335.855 82.4966C335.339 82.4966 334.952 82.7166 334.694 83.1567V88H332.859V81.1318H334.586Z" fill="#E9E9E9" fill-opacity="0.6"/>
<rect x="16" y="104" width="48" height="48" fill="#33334E"/>
<rect x="64" y="104" width="48" height="48" fill="#33334E"/>
<path d="M137.128 133H135.675V123.367L132.761 124.438V123.125L136.902 121.57H137.128V133Z" fill="#F472B6" fill-opacity="0.87"/>
<rect x="166" y="109" width="36" height="38" rx="11" fill="#F472B6" fill-opacity="0.87"/>
<path d="M187.831 133H180.378V131.961L184.316 127.586C184.899 126.924 185.3 126.388 185.519 125.977C185.743 125.56 185.855 125.13 185.855 124.688C185.855 124.094 185.675 123.607 185.316 123.227C184.956 122.846 184.477 122.656 183.878 122.656C183.159 122.656 182.599 122.862 182.198 123.273C181.803 123.68 181.605 124.247 181.605 124.977H180.159C180.159 123.93 180.495 123.083 181.167 122.438C181.844 121.792 182.748 121.469 183.878 121.469C184.935 121.469 185.771 121.747 186.386 122.305C187.001 122.857 187.308 123.594 187.308 124.516C187.308 125.635 186.594 126.969 185.167 128.516L182.12 131.82H187.831V133Z" fill="#33334E"/>
<path d="M230.48 126.609H231.566C232.248 126.599 232.784 126.419 233.175 126.07C233.566 125.721 233.761 125.25 233.761 124.656C233.761 123.323 233.097 122.656 231.769 122.656C231.144 122.656 230.644 122.836 230.269 123.195C229.899 123.549 229.714 124.021 229.714 124.609H228.269C228.269 123.708 228.597 122.961 229.253 122.367C229.915 121.768 230.753 121.469 231.769 121.469C232.842 121.469 233.683 121.753 234.292 122.32C234.902 122.888 235.206 123.677 235.206 124.688C235.206 125.182 235.045 125.661 234.722 126.125C234.404 126.589 233.969 126.935 233.417 127.164C234.042 127.362 234.524 127.69 234.863 128.148C235.206 128.607 235.378 129.167 235.378 129.828C235.378 130.849 235.045 131.659 234.378 132.258C233.711 132.857 232.844 133.156 231.777 133.156C230.709 133.156 229.839 132.867 229.167 132.289C228.501 131.711 228.167 130.948 228.167 130H229.62C229.62 130.599 229.816 131.078 230.206 131.438C230.597 131.797 231.12 131.977 231.777 131.977C232.474 131.977 233.008 131.794 233.378 131.43C233.748 131.065 233.933 130.542 233.933 129.859C233.933 129.198 233.73 128.69 233.323 128.336C232.917 127.982 232.331 127.799 231.566 127.789H230.48V126.609Z" fill="#F472B6" fill-opacity="0.87"/>
<path d="M282.48 129.18H284.058V130.359H282.48V133H281.027V130.359H275.847V129.508L280.941 121.625H282.48V129.18ZM277.488 129.18H281.027V123.602L280.855 123.914L277.488 129.18Z" fill="#F472B6" fill-opacity="0.87"/>
<path d="M325.042 127.297L325.62 121.625H331.448V122.961H326.847L326.503 126.062C327.06 125.734 327.693 125.57 328.402 125.57C329.438 125.57 330.261 125.914 330.87 126.602C331.48 127.284 331.784 128.208 331.784 129.375C331.784 130.547 331.467 131.471 330.831 132.148C330.201 132.82 329.318 133.156 328.183 133.156C327.178 133.156 326.357 132.878 325.722 132.32C325.086 131.763 324.724 130.992 324.636 130.008H326.003C326.092 130.659 326.323 131.151 326.698 131.484C327.073 131.812 327.568 131.977 328.183 131.977C328.855 131.977 329.381 131.747 329.761 131.289C330.146 130.831 330.339 130.198 330.339 129.391C330.339 128.63 330.131 128.021 329.714 127.562C329.303 127.099 328.753 126.867 328.066 126.867C327.435 126.867 326.941 127.005 326.581 127.281L326.198 127.594L325.042 127.297Z" fill="#F472B6" fill-opacity="0.87"/>
<path d="M324.561 185H323.108V175.367L320.194 176.438V175.125L324.334 173.57H324.561V185ZM336.398 185H328.945V183.961L332.883 179.586C333.466 178.924 333.867 178.388 334.086 177.977C334.31 177.56 334.422 177.13 334.422 176.688C334.422 176.094 334.242 175.607 333.883 175.227C333.523 174.846 333.044 174.656 332.445 174.656C331.727 174.656 331.167 174.862 330.766 175.273C330.37 175.68 330.172 176.247 330.172 176.977H328.727C328.727 175.93 329.062 175.083 329.734 174.438C330.411 173.792 331.315 173.469 332.445 173.469C333.503 173.469 334.339 173.747 334.953 174.305C335.568 174.857 335.875 175.594 335.875 176.516C335.875 177.635 335.161 178.969 333.734 180.516L330.688 183.82H336.398V185Z" fill="#F472B6" fill-opacity="0.87"/>
<path d="M42.05 173.617V174.844H41.7844C40.6594 174.865 39.7635 175.198 39.0969 175.844C38.4302 176.49 38.0448 177.398 37.9406 178.57C38.5396 177.883 39.3573 177.539 40.3938 177.539C41.3833 177.539 42.1724 177.888 42.7609 178.586C43.3547 179.284 43.6516 180.185 43.6516 181.289C43.6516 182.461 43.3313 183.398 42.6906 184.102C42.0552 184.805 41.201 185.156 40.1281 185.156C39.0396 185.156 38.1568 184.74 37.4797 183.906C36.8026 183.068 36.4641 181.99 36.4641 180.672V180.117C36.4641 178.023 36.9094 176.424 37.8 175.32C38.6958 174.211 40.0266 173.643 41.7922 173.617H42.05ZM40.1516 178.742C39.6568 178.742 39.201 178.891 38.7844 179.188C38.3677 179.484 38.0786 179.857 37.9172 180.305V180.836C37.9172 181.773 38.1281 182.529 38.55 183.102C38.9719 183.674 39.4979 183.961 40.1281 183.961C40.7792 183.961 41.2896 183.721 41.6594 183.242C42.0344 182.763 42.2219 182.135 42.2219 181.359C42.2219 180.578 42.0318 179.948 41.6516 179.469C41.2766 178.984 40.7766 178.742 40.1516 178.742Z" fill="#F472B6" fill-opacity="0.87"/>
<path d="M91.7219 174.438L87.0109 185H85.4953L90.1906 174.812H84.0344V173.625H91.7219V174.438Z" fill="#F472B6" fill-opacity="0.87"/>
<path d="M139.277 176.594C139.277 177.161 139.126 177.667 138.823 178.109C138.527 178.552 138.123 178.898 137.613 179.148C138.206 179.404 138.675 179.776 139.019 180.266C139.368 180.755 139.542 181.31 139.542 181.93C139.542 182.914 139.209 183.698 138.542 184.281C137.881 184.865 137.008 185.156 135.925 185.156C134.831 185.156 133.954 184.865 133.292 184.281C132.636 183.693 132.308 182.909 132.308 181.93C132.308 181.315 132.474 180.76 132.808 180.266C133.146 179.771 133.613 179.396 134.206 179.141C133.701 178.891 133.303 178.544 133.011 178.102C132.719 177.659 132.573 177.156 132.573 176.594C132.573 175.635 132.881 174.875 133.495 174.312C134.11 173.75 134.92 173.469 135.925 173.469C136.925 173.469 137.732 173.75 138.347 174.312C138.967 174.875 139.277 175.635 139.277 176.594ZM138.097 181.898C138.097 181.263 137.894 180.745 137.488 180.344C137.086 179.943 136.56 179.742 135.909 179.742C135.258 179.742 134.735 179.94 134.339 180.336C133.948 180.732 133.753 181.253 133.753 181.898C133.753 182.544 133.943 183.052 134.323 183.422C134.709 183.792 135.243 183.977 135.925 183.977C136.602 183.977 137.133 183.792 137.519 183.422C137.904 183.047 138.097 182.539 138.097 181.898ZM135.925 174.656C135.357 174.656 134.896 174.833 134.542 175.188C134.193 175.536 134.019 176.013 134.019 176.617C134.019 177.195 134.191 177.664 134.534 178.023C134.883 178.378 135.347 178.555 135.925 178.555C136.503 178.555 136.964 178.378 137.308 178.023C137.657 177.664 137.831 177.195 137.831 176.617C137.831 176.039 137.652 175.568 137.292 175.203C136.933 174.839 136.477 174.656 135.925 174.656Z" fill="#F472B6" fill-opacity="0.87"/>
<path d="M185.917 180C185.615 180.359 185.253 180.648 184.831 180.867C184.415 181.086 183.956 181.195 183.456 181.195C182.8 181.195 182.227 181.034 181.738 180.711C181.253 180.388 180.878 179.935 180.613 179.352C180.347 178.763 180.214 178.115 180.214 177.406C180.214 176.646 180.357 175.961 180.644 175.352C180.935 174.742 181.347 174.276 181.878 173.953C182.409 173.63 183.029 173.469 183.738 173.469C184.863 173.469 185.748 173.891 186.394 174.734C187.045 175.573 187.37 176.719 187.37 178.172V178.594C187.37 180.807 186.933 182.424 186.058 183.445C185.183 184.461 183.863 184.982 182.097 185.008H181.816V183.789H182.12C183.313 183.768 184.23 183.458 184.87 182.859C185.511 182.255 185.86 181.302 185.917 180ZM183.691 180C184.175 180 184.62 179.852 185.027 179.555C185.438 179.258 185.738 178.891 185.925 178.453V177.875C185.925 176.927 185.719 176.156 185.308 175.562C184.896 174.969 184.376 174.672 183.745 174.672C183.11 174.672 182.599 174.917 182.214 175.406C181.829 175.891 181.636 176.531 181.636 177.328C181.636 178.104 181.821 178.745 182.191 179.25C182.566 179.75 183.066 180 183.691 180Z" fill="#F472B6" fill-opacity="0.87"/>
<path d="M228.561 185H227.108V175.367L224.194 176.438V175.125L228.334 173.57H228.561V185ZM240.078 180.148C240.078 181.841 239.789 183.099 239.211 183.922C238.633 184.745 237.729 185.156 236.5 185.156C235.286 185.156 234.388 184.755 233.805 183.953C233.221 183.146 232.919 181.943 232.898 180.344V178.414C232.898 176.742 233.188 175.5 233.766 174.688C234.344 173.875 235.25 173.469 236.484 173.469C237.708 173.469 238.609 173.862 239.188 174.648C239.766 175.43 240.062 176.638 240.078 178.273V180.148ZM238.633 178.172C238.633 176.948 238.461 176.057 238.117 175.5C237.773 174.938 237.229 174.656 236.484 174.656C235.745 174.656 235.206 174.935 234.867 175.492C234.529 176.049 234.354 176.906 234.344 178.062V180.375C234.344 181.604 234.521 182.513 234.875 183.102C235.234 183.685 235.776 183.977 236.5 183.977C237.214 183.977 237.742 183.701 238.086 183.148C238.435 182.596 238.617 181.727 238.633 180.539V178.172Z" fill="#F472B6" fill-opacity="0.87"/>
<path d="M276.561 185H275.108V175.367L272.194 176.438V175.125L276.334 173.57H276.561V185ZM285.695 185H284.242V175.367L281.328 176.438V175.125L285.469 173.57H285.695V185Z" fill="#F472B6" fill-opacity="0.87"/>
<path d="M324.561 237H323.108V227.367L320.194 228.438V227.125L324.334 225.57H324.561V237ZM334.484 232C334.182 232.359 333.82 232.648 333.398 232.867C332.982 233.086 332.523 233.195 332.023 233.195C331.367 233.195 330.794 233.034 330.305 232.711C329.82 232.388 329.445 231.935 329.18 231.352C328.914 230.763 328.781 230.115 328.781 229.406C328.781 228.646 328.924 227.961 329.211 227.352C329.503 226.742 329.914 226.276 330.445 225.953C330.977 225.63 331.596 225.469 332.305 225.469C333.43 225.469 334.315 225.891 334.961 226.734C335.612 227.573 335.938 228.719 335.938 230.172V230.594C335.938 232.807 335.5 234.424 334.625 235.445C333.75 236.461 332.43 236.982 330.664 237.008H330.383V235.789H330.688C331.88 235.768 332.797 235.458 333.438 234.859C334.078 234.255 334.427 233.302 334.484 232ZM332.258 232C332.742 232 333.188 231.852 333.594 231.555C334.005 231.258 334.305 230.891 334.492 230.453V229.875C334.492 228.927 334.286 228.156 333.875 227.562C333.464 226.969 332.943 226.672 332.312 226.672C331.677 226.672 331.167 226.917 330.781 227.406C330.396 227.891 330.203 228.531 330.203 229.328C330.203 230.104 330.388 230.745 330.758 231.25C331.133 231.75 331.633 232 332.258 232Z" fill="#F472B6" fill-opacity="0.87"/>
<path d="M36.5609 237H35.1078V227.367L32.1938 228.438V227.125L36.3344 225.57H36.5609V237ZM43.0469 230.609H44.1328C44.8151 230.599 45.3516 230.419 45.7422 230.07C46.1328 229.721 46.3281 229.25 46.3281 228.656C46.3281 227.323 45.6641 226.656 44.3359 226.656C43.7109 226.656 43.2109 226.836 42.8359 227.195C42.4661 227.549 42.2812 228.021 42.2812 228.609H40.8359C40.8359 227.708 41.1641 226.961 41.8203 226.367C42.4818 225.768 43.3203 225.469 44.3359 225.469C45.4089 225.469 46.25 225.753 46.8594 226.32C47.4688 226.888 47.7734 227.677 47.7734 228.688C47.7734 229.182 47.612 229.661 47.2891 230.125C46.9714 230.589 46.5365 230.935 45.9844 231.164C46.6094 231.362 47.0911 231.69 47.4297 232.148C47.7734 232.607 47.9453 233.167 47.9453 233.828C47.9453 234.849 47.612 235.659 46.9453 236.258C46.2786 236.857 45.4115 237.156 44.3438 237.156C43.276 237.156 42.4062 236.867 41.7344 236.289C41.0677 235.711 40.7344 234.948 40.7344 234H42.1875C42.1875 234.599 42.3828 235.078 42.7734 235.438C43.1641 235.797 43.6875 235.977 44.3438 235.977C45.0417 235.977 45.5755 235.794 45.9453 235.43C46.3151 235.065 46.5 234.542 46.5 233.859C46.5 233.198 46.2969 232.69 45.8906 232.336C45.4844 231.982 44.8984 231.799 44.1328 231.789H43.0469V230.609Z" fill="#F472B6" fill-opacity="0.87"/>
<path d="M84.5609 237H83.1078V227.367L80.1938 228.438V227.125L84.3344 225.57H84.5609V237ZM95.0469 233.18H96.625V234.359H95.0469V237H93.5938V234.359H88.4141V233.508L93.5078 225.625H95.0469V233.18ZM90.0547 233.18H93.5938V227.602L93.4219 227.914L90.0547 233.18Z" fill="#F472B6" fill-opacity="0.87"/>
<path d="M132.561 237H131.108V227.367L128.194 228.438V227.125L132.334 225.57H132.561V237ZM137.609 231.297L138.188 225.625H144.016V226.961H139.414L139.07 230.062C139.628 229.734 140.26 229.57 140.969 229.57C142.005 229.57 142.828 229.914 143.438 230.602C144.047 231.284 144.352 232.208 144.352 233.375C144.352 234.547 144.034 235.471 143.398 236.148C142.768 236.82 141.885 237.156 140.75 237.156C139.745 237.156 138.924 236.878 138.289 236.32C137.654 235.763 137.292 234.992 137.203 234.008H138.57C138.659 234.659 138.891 235.151 139.266 235.484C139.641 235.812 140.135 235.977 140.75 235.977C141.422 235.977 141.948 235.747 142.328 235.289C142.714 234.831 142.906 234.198 142.906 233.391C142.906 232.63 142.698 232.021 142.281 231.562C141.87 231.099 141.32 230.867 140.633 230.867C140.003 230.867 139.508 231.005 139.148 231.281L138.766 231.594L137.609 231.297Z" fill="#F472B6" fill-opacity="0.87"/>
<path d="M180.561 237H179.108V227.367L176.194 228.438V227.125L180.334 225.57H180.561V237ZM190.617 225.617V226.844H190.352C189.227 226.865 188.331 227.198 187.664 227.844C186.997 228.49 186.612 229.398 186.508 230.57C187.107 229.883 187.924 229.539 188.961 229.539C189.951 229.539 190.74 229.888 191.328 230.586C191.922 231.284 192.219 232.185 192.219 233.289C192.219 234.461 191.898 235.398 191.258 236.102C190.622 236.805 189.768 237.156 188.695 237.156C187.607 237.156 186.724 236.74 186.047 235.906C185.37 235.068 185.031 233.99 185.031 232.672V232.117C185.031 230.023 185.477 228.424 186.367 227.32C187.263 226.211 188.594 225.643 190.359 225.617H190.617ZM188.719 230.742C188.224 230.742 187.768 230.891 187.352 231.188C186.935 231.484 186.646 231.857 186.484 232.305V232.836C186.484 233.773 186.695 234.529 187.117 235.102C187.539 235.674 188.065 235.961 188.695 235.961C189.346 235.961 189.857 235.721 190.227 235.242C190.602 234.763 190.789 234.135 190.789 233.359C190.789 232.578 190.599 231.948 190.219 231.469C189.844 230.984 189.344 230.742 188.719 230.742Z" fill="#F472B6" fill-opacity="0.87"/>
<path d="M228.561 237H227.108V227.367L224.194 228.438V227.125L228.334 225.57H228.561V237ZM240.289 226.438L235.578 237H234.062L238.758 226.812H232.602V225.625H240.289V226.438Z" fill="#F472B6" fill-opacity="0.87"/>
<path d="M276.561 237H275.108V227.367L272.194 228.438V227.125L276.334 225.57H276.561V237ZM287.844 228.594C287.844 229.161 287.693 229.667 287.391 230.109C287.094 230.552 286.69 230.898 286.18 231.148C286.773 231.404 287.242 231.776 287.586 232.266C287.935 232.755 288.109 233.31 288.109 233.93C288.109 234.914 287.776 235.698 287.109 236.281C286.448 236.865 285.576 237.156 284.492 237.156C283.398 237.156 282.521 236.865 281.859 236.281C281.203 235.693 280.875 234.909 280.875 233.93C280.875 233.315 281.042 232.76 281.375 232.266C281.714 231.771 282.18 231.396 282.773 231.141C282.268 230.891 281.87 230.544 281.578 230.102C281.286 229.659 281.141 229.156 281.141 228.594C281.141 227.635 281.448 226.875 282.062 226.312C282.677 225.75 283.487 225.469 284.492 225.469C285.492 225.469 286.299 225.75 286.914 226.312C287.534 226.875 287.844 227.635 287.844 228.594ZM286.664 233.898C286.664 233.263 286.461 232.745 286.055 232.344C285.654 231.943 285.128 231.742 284.477 231.742C283.826 231.742 283.302 231.94 282.906 232.336C282.516 232.732 282.32 233.253 282.32 233.898C282.32 234.544 282.51 235.052 282.891 235.422C283.276 235.792 283.81 235.977 284.492 235.977C285.169 235.977 285.701 235.792 286.086 235.422C286.471 235.047 286.664 234.539 286.664 233.898ZM284.492 226.656C283.924 226.656 283.464 226.833 283.109 227.188C282.76 227.536 282.586 228.013 282.586 228.617C282.586 229.195 282.758 229.664 283.102 230.023C283.451 230.378 283.914 230.555 284.492 230.555C285.07 230.555 285.531 230.378 285.875 230.023C286.224 229.664 286.398 229.195 286.398 228.617C286.398 228.039 286.219 227.568 285.859 227.203C285.5 226.839 285.044 226.656 284.492 226.656Z" fill="#F472B6" fill-opacity="0.87"/>
<path d="M327.264 289H319.811V287.961L323.748 283.586C324.332 282.924 324.733 282.388 324.952 281.977C325.176 281.56 325.288 281.13 325.288 280.688C325.288 280.094 325.108 279.607 324.748 279.227C324.389 278.846 323.91 278.656 323.311 278.656C322.592 278.656 322.032 278.862 321.631 279.273C321.235 279.68 321.038 280.247 321.038 280.977H319.592C319.592 279.93 319.928 279.083 320.6 278.438C321.277 277.792 322.181 277.469 323.311 277.469C324.368 277.469 325.204 277.747 325.819 278.305C326.433 278.857 326.741 279.594 326.741 280.516C326.741 281.635 326.027 282.969 324.6 284.516L321.553 287.82H327.264V289ZM334.617 277.617V278.844H334.352C333.227 278.865 332.331 279.198 331.664 279.844C330.997 280.49 330.612 281.398 330.508 282.57C331.107 281.883 331.924 281.539 332.961 281.539C333.951 281.539 334.74 281.888 335.328 282.586C335.922 283.284 336.219 284.185 336.219 285.289C336.219 286.461 335.898 287.398 335.258 288.102C334.622 288.805 333.768 289.156 332.695 289.156C331.607 289.156 330.724 288.74 330.047 287.906C329.37 287.068 329.031 285.99 329.031 284.672V284.117C329.031 282.023 329.477 280.424 330.367 279.32C331.263 278.211 332.594 277.643 334.359 277.617H334.617ZM332.719 282.742C332.224 282.742 331.768 282.891 331.352 283.188C330.935 283.484 330.646 283.857 330.484 284.305V284.836C330.484 285.773 330.695 286.529 331.117 287.102C331.539 287.674 332.065 287.961 332.695 287.961C333.346 287.961 333.857 287.721 334.227 287.242C334.602 286.763 334.789 286.135 334.789 285.359C334.789 284.578 334.599 283.948 334.219 283.469C333.844 282.984 333.344 282.742 332.719 282.742Z" fill="#F472B6" fill-opacity="0.87"/>
<path d="M39.2641 289H31.8109V287.961L35.7484 283.586C36.3318 282.924 36.7328 282.388 36.9516 281.977C37.1755 281.56 37.2875 281.13 37.2875 280.688C37.2875 280.094 37.1078 279.607 36.7484 279.227C36.3891 278.846 35.9099 278.656 35.3109 278.656C34.5922 278.656 34.0323 278.862 33.6313 279.273C33.2354 279.68 33.0375 280.247 33.0375 280.977H31.5922C31.5922 279.93 31.9281 279.083 32.6 278.438C33.2771 277.792 34.1807 277.469 35.3109 277.469C36.3682 277.469 37.2042 277.747 37.8188 278.305C38.4333 278.857 38.7406 279.594 38.7406 280.516C38.7406 281.635 38.0271 282.969 36.6 284.516L33.5531 287.82H39.2641V289ZM48.0781 284.148C48.0781 285.841 47.7891 287.099 47.2109 287.922C46.6328 288.745 45.7292 289.156 44.5 289.156C43.2865 289.156 42.388 288.755 41.8047 287.953C41.2214 287.146 40.9193 285.943 40.8984 284.344V282.414C40.8984 280.742 41.1875 279.5 41.7656 278.688C42.3438 277.875 43.25 277.469 44.4844 277.469C45.7083 277.469 46.6094 277.862 47.1875 278.648C47.7656 279.43 48.0625 280.638 48.0781 282.273V284.148ZM46.6328 282.172C46.6328 280.948 46.4609 280.057 46.1172 279.5C45.7734 278.938 45.2292 278.656 44.4844 278.656C43.7448 278.656 43.2057 278.935 42.8672 279.492C42.5286 280.049 42.3542 280.906 42.3438 282.062V284.375C42.3438 285.604 42.5208 286.513 42.875 287.102C43.2344 287.685 43.776 287.977 44.5 287.977C45.2135 287.977 45.7422 287.701 46.0859 287.148C46.4349 286.596 46.6172 285.727 46.6328 284.539V282.172Z" fill="#F472B6" fill-opacity="0.87"/>
<path d="M87.2641 289H79.8109V287.961L83.7484 283.586C84.3318 282.924 84.7328 282.388 84.9516 281.977C85.1755 281.56 85.2875 281.13 85.2875 280.688C85.2875 280.094 85.1078 279.607 84.7484 279.227C84.3891 278.846 83.9099 278.656 83.3109 278.656C82.5922 278.656 82.0323 278.862 81.6313 279.273C81.2354 279.68 81.0375 280.247 81.0375 280.977H79.5922C79.5922 279.93 79.9281 279.083 80.6 278.438C81.2771 277.792 82.1807 277.469 83.3109 277.469C84.3682 277.469 85.2042 277.747 85.8188 278.305C86.4333 278.857 86.7406 279.594 86.7406 280.516C86.7406 281.635 86.0271 282.969 84.6 284.516L81.5531 287.82H87.2641V289ZM93.6953 289H92.2422V279.367L89.3281 280.438V279.125L93.4688 277.57H93.6953V289Z" fill="#F472B6" fill-opacity="0.87"/>
<path d="M135.264 289H127.811V287.961L131.748 283.586C132.332 282.924 132.733 282.388 132.952 281.977C133.176 281.56 133.288 281.13 133.288 280.688C133.288 280.094 133.108 279.607 132.748 279.227C132.389 278.846 131.91 278.656 131.311 278.656C130.592 278.656 130.032 278.862 129.631 279.273C129.235 279.68 129.038 280.247 129.038 280.977H127.592C127.592 279.93 127.928 279.083 128.6 278.438C129.277 277.792 130.181 277.469 131.311 277.469C132.368 277.469 133.204 277.747 133.819 278.305C134.433 278.857 134.741 279.594 134.741 280.516C134.741 281.635 134.027 282.969 132.6 284.516L129.553 287.82H135.264V289ZM144.398 289H136.945V287.961L140.883 283.586C141.466 282.924 141.867 282.388 142.086 281.977C142.31 281.56 142.422 281.13 142.422 280.688C142.422 280.094 142.242 279.607 141.883 279.227C141.523 278.846 141.044 278.656 140.445 278.656C139.727 278.656 139.167 278.862 138.766 279.273C138.37 279.68 138.172 280.247 138.172 280.977H136.727C136.727 279.93 137.062 279.083 137.734 278.438C138.411 277.792 139.315 277.469 140.445 277.469C141.503 277.469 142.339 277.747 142.953 278.305C143.568 278.857 143.875 279.594 143.875 280.516C143.875 281.635 143.161 282.969 141.734 284.516L138.688 287.82H144.398V289Z" fill="#F472B6" fill-opacity="0.87"/>
<path d="M183.264 289H175.811V287.961L179.748 283.586C180.332 282.924 180.733 282.388 180.952 281.977C181.176 281.56 181.288 281.13 181.288 280.688C181.288 280.094 181.108 279.607 180.748 279.227C180.389 278.846 179.91 278.656 179.311 278.656C178.592 278.656 178.032 278.862 177.631 279.273C177.235 279.68 177.038 280.247 177.038 280.977H175.592C175.592 279.93 175.928 279.083 176.6 278.438C177.277 277.792 178.181 277.469 179.311 277.469C180.368 277.469 181.204 277.747 181.819 278.305C182.433 278.857 182.741 279.594 182.741 280.516C182.741 281.635 182.027 282.969 180.6 284.516L177.553 287.82H183.264V289ZM187.047 282.609H188.133C188.815 282.599 189.352 282.419 189.742 282.07C190.133 281.721 190.328 281.25 190.328 280.656C190.328 279.323 189.664 278.656 188.336 278.656C187.711 278.656 187.211 278.836 186.836 279.195C186.466 279.549 186.281 280.021 186.281 280.609H184.836C184.836 279.708 185.164 278.961 185.82 278.367C186.482 277.768 187.32 277.469 188.336 277.469C189.409 277.469 190.25 277.753 190.859 278.32C191.469 278.888 191.773 279.677 191.773 280.688C191.773 281.182 191.612 281.661 191.289 282.125C190.971 282.589 190.536 282.935 189.984 283.164C190.609 283.362 191.091 283.69 191.43 284.148C191.773 284.607 191.945 285.167 191.945 285.828C191.945 286.849 191.612 287.659 190.945 288.258C190.279 288.857 189.411 289.156 188.344 289.156C187.276 289.156 186.406 288.867 185.734 288.289C185.068 287.711 184.734 286.948 184.734 286H186.188C186.188 286.599 186.383 287.078 186.773 287.438C187.164 287.797 187.688 287.977 188.344 287.977C189.042 287.977 189.576 287.794 189.945 287.43C190.315 287.065 190.5 286.542 190.5 285.859C190.5 285.198 190.297 284.69 189.891 284.336C189.484 283.982 188.898 283.799 188.133 283.789H187.047V282.609Z" fill="#F472B6" fill-opacity="0.87"/>
<path d="M231.264 289H223.811V287.961L227.748 283.586C228.332 282.924 228.733 282.388 228.952 281.977C229.176 281.56 229.288 281.13 229.288 280.688C229.288 280.094 229.108 279.607 228.748 279.227C228.389 278.846 227.91 278.656 227.311 278.656C226.592 278.656 226.032 278.862 225.631 279.273C225.235 279.68 225.038 280.247 225.038 280.977H223.592C223.592 279.93 223.928 279.083 224.6 278.438C225.277 277.792 226.181 277.469 227.311 277.469C228.368 277.469 229.204 277.747 229.819 278.305C230.433 278.857 230.741 279.594 230.741 280.516C230.741 281.635 230.027 282.969 228.6 284.516L225.553 287.82H231.264V289ZM239.047 285.18H240.625V286.359H239.047V289H237.594V286.359H232.414V285.508L237.508 277.625H239.047V285.18ZM234.055 285.18H237.594V279.602L237.422 279.914L234.055 285.18Z" fill="#F472B6" fill-opacity="0.87"/>
<path d="M279.264 289H271.811V287.961L275.748 283.586C276.332 282.924 276.733 282.388 276.952 281.977C277.176 281.56 277.288 281.13 277.288 280.688C277.288 280.094 277.108 279.607 276.748 279.227C276.389 278.846 275.91 278.656 275.311 278.656C274.592 278.656 274.032 278.862 273.631 279.273C273.235 279.68 273.038 280.247 273.038 280.977H271.592C271.592 279.93 271.928 279.083 272.6 278.438C273.277 277.792 274.181 277.469 275.311 277.469C276.368 277.469 277.204 277.747 277.819 278.305C278.433 278.857 278.741 279.594 278.741 280.516C278.741 281.635 278.027 282.969 276.6 284.516L273.553 287.82H279.264V289ZM281.609 283.297L282.188 277.625H288.016V278.961H283.414L283.07 282.062C283.628 281.734 284.26 281.57 284.969 281.57C286.005 281.57 286.828 281.914 287.438 282.602C288.047 283.284 288.352 284.208 288.352 285.375C288.352 286.547 288.034 287.471 287.398 288.148C286.768 288.82 285.885 289.156 284.75 289.156C283.745 289.156 282.924 288.878 282.289 288.32C281.654 287.763 281.292 286.992 281.203 286.008H282.57C282.659 286.659 282.891 287.151 283.266 287.484C283.641 287.812 284.135 287.977 284.75 287.977C285.422 287.977 285.948 287.747 286.328 287.289C286.714 286.831 286.906 286.198 286.906 285.391C286.906 284.63 286.698 284.021 286.281 283.562C285.87 283.099 285.32 282.867 284.633 282.867C284.003 282.867 283.508 283.005 283.148 283.281L282.766 283.594L281.609 283.297Z" fill="#F472B6" fill-opacity="0.87"/>
<rect x="256" y="312" width="48" height="48" fill="#33334E"/>
<path d="M39.2641 341H31.8109V339.961L35.7484 335.586C36.3318 334.924 36.7328 334.388 36.9516 333.977C37.1755 333.56 37.2875 333.13 37.2875 332.688C37.2875 332.094 37.1078 331.607 36.7484 331.227C36.3891 330.846 35.9099 330.656 35.3109 330.656C34.5922 330.656 34.0323 330.862 33.6313 331.273C33.2354 331.68 33.0375 332.247 33.0375 332.977H31.5922C31.5922 331.93 31.9281 331.083 32.6 330.438C33.2771 329.792 34.1807 329.469 35.3109 329.469C36.3682 329.469 37.2042 329.747 37.8188 330.305C38.4333 330.857 38.7406 331.594 38.7406 332.516C38.7406 333.635 38.0271 334.969 36.6 336.516L33.5531 339.82H39.2641V341ZM48.2891 330.438L43.5781 341H42.0625L46.7578 330.812H40.6016V329.625H48.2891V330.438Z" fill="#F472B6" fill-opacity="0.87"/>
<path d="M87.2641 341H79.8109V339.961L83.7484 335.586C84.3318 334.924 84.7328 334.388 84.9516 333.977C85.1755 333.56 85.2875 333.13 85.2875 332.688C85.2875 332.094 85.1078 331.607 84.7484 331.227C84.3891 330.846 83.9099 330.656 83.3109 330.656C82.5922 330.656 82.0323 330.862 81.6313 331.273C81.2354 331.68 81.0375 332.247 81.0375 332.977H79.5922C79.5922 331.93 79.9281 331.083 80.6 330.438C81.2771 329.792 82.1807 329.469 83.3109 329.469C84.3682 329.469 85.2042 329.747 85.8188 330.305C86.4333 330.857 86.7406 331.594 86.7406 332.516C86.7406 333.635 86.0271 334.969 84.6 336.516L81.5531 339.82H87.2641V341ZM95.8438 332.594C95.8438 333.161 95.6927 333.667 95.3906 334.109C95.0938 334.552 94.6901 334.898 94.1797 335.148C94.7734 335.404 95.2422 335.776 95.5859 336.266C95.9349 336.755 96.1094 337.31 96.1094 337.93C96.1094 338.914 95.776 339.698 95.1094 340.281C94.4479 340.865 93.5755 341.156 92.4922 341.156C91.3984 341.156 90.5208 340.865 89.8594 340.281C89.2031 339.693 88.875 338.909 88.875 337.93C88.875 337.315 89.0417 336.76 89.375 336.266C89.7135 335.771 90.1797 335.396 90.7734 335.141C90.2682 334.891 89.8698 334.544 89.5781 334.102C89.2865 333.659 89.1406 333.156 89.1406 332.594C89.1406 331.635 89.4479 330.875 90.0625 330.312C90.6771 329.75 91.487 329.469 92.4922 329.469C93.4922 329.469 94.2995 329.75 94.9141 330.312C95.5339 330.875 95.8438 331.635 95.8438 332.594ZM94.6641 337.898C94.6641 337.263 94.4609 336.745 94.0547 336.344C93.6536 335.943 93.1276 335.742 92.4766 335.742C91.8255 335.742 91.3021 335.94 90.9062 336.336C90.5156 336.732 90.3203 337.253 90.3203 337.898C90.3203 338.544 90.5104 339.052 90.8906 339.422C91.276 339.792 91.8099 339.977 92.4922 339.977C93.1693 339.977 93.7005 339.792 94.0859 339.422C94.4714 339.047 94.6641 338.539 94.6641 337.898ZM92.4922 330.656C91.9245 330.656 91.4635 330.833 91.1094 331.188C90.7604 331.536 90.5859 332.013 90.5859 332.617C90.5859 333.195 90.7578 333.664 91.1016 334.023C91.4505 334.378 91.9141 334.555 92.4922 334.555C93.0703 334.555 93.5312 334.378 93.875 334.023C94.224 333.664 94.3984 333.195 94.3984 332.617C94.3984 332.039 94.2188 331.568 93.8594 331.203C93.5 330.839 93.0443 330.656 92.4922 330.656Z" fill="#F472B6" fill-opacity="0.87"/>
<path d="M135.264 341H127.811V339.961L131.748 335.586C132.332 334.924 132.733 334.388 132.952 333.977C133.176 333.56 133.288 333.13 133.288 332.688C133.288 332.094 133.108 331.607 132.748 331.227C132.389 330.846 131.91 330.656 131.311 330.656C130.592 330.656 130.032 330.862 129.631 331.273C129.235 331.68 129.038 332.247 129.038 332.977H127.592C127.592 331.93 127.928 331.083 128.6 330.438C129.277 329.792 130.181 329.469 131.311 329.469C132.368 329.469 133.204 329.747 133.819 330.305C134.433 330.857 134.741 331.594 134.741 332.516C134.741 333.635 134.027 334.969 132.6 336.516L129.553 339.82H135.264V341ZM142.484 336C142.182 336.359 141.82 336.648 141.398 336.867C140.982 337.086 140.523 337.195 140.023 337.195C139.367 337.195 138.794 337.034 138.305 336.711C137.82 336.388 137.445 335.935 137.18 335.352C136.914 334.763 136.781 334.115 136.781 333.406C136.781 332.646 136.924 331.961 137.211 331.352C137.503 330.742 137.914 330.276 138.445 329.953C138.977 329.63 139.596 329.469 140.305 329.469C141.43 329.469 142.315 329.891 142.961 330.734C143.612 331.573 143.938 332.719 143.938 334.172V334.594C143.938 336.807 143.5 338.424 142.625 339.445C141.75 340.461 140.43 340.982 138.664 341.008H138.383V339.789H138.688C139.88 339.768 140.797 339.458 141.438 338.859C142.078 338.255 142.427 337.302 142.484 336ZM140.258 336C140.742 336 141.188 335.852 141.594 335.555C142.005 335.258 142.305 334.891 142.492 334.453V333.875C142.492 332.927 142.286 332.156 141.875 331.562C141.464 330.969 140.943 330.672 140.312 330.672C139.677 330.672 139.167 330.917 138.781 331.406C138.396 331.891 138.203 332.531 138.203 333.328C138.203 334.104 138.388 334.745 138.758 335.25C139.133 335.75 139.633 336 140.258 336Z" fill="#F472B6" fill-opacity="0.87"/>
<path d="M177.913 334.609H178.998C179.681 334.599 180.217 334.419 180.608 334.07C180.998 333.721 181.194 333.25 181.194 332.656C181.194 331.323 180.53 330.656 179.202 330.656C178.577 330.656 178.077 330.836 177.702 331.195C177.332 331.549 177.147 332.021 177.147 332.609H175.702C175.702 331.708 176.03 330.961 176.686 330.367C177.347 329.768 178.186 329.469 179.202 329.469C180.274 329.469 181.116 329.753 181.725 330.32C182.334 330.888 182.639 331.677 182.639 332.688C182.639 333.182 182.478 333.661 182.155 334.125C181.837 334.589 181.402 334.935 180.85 335.164C181.475 335.362 181.957 335.69 182.295 336.148C182.639 336.607 182.811 337.167 182.811 337.828C182.811 338.849 182.478 339.659 181.811 340.258C181.144 340.857 180.277 341.156 179.209 341.156C178.142 341.156 177.272 340.867 176.6 340.289C175.933 339.711 175.6 338.948 175.6 338H177.053C177.053 338.599 177.248 339.078 177.639 339.438C178.03 339.797 178.553 339.977 179.209 339.977C179.907 339.977 180.441 339.794 180.811 339.43C181.181 339.065 181.366 338.542 181.366 337.859C181.366 337.198 181.163 336.69 180.756 336.336C180.35 335.982 179.764 335.799 178.998 335.789H177.913V334.609ZM192.078 336.148C192.078 337.841 191.789 339.099 191.211 339.922C190.633 340.745 189.729 341.156 188.5 341.156C187.286 341.156 186.388 340.755 185.805 339.953C185.221 339.146 184.919 337.943 184.898 336.344V334.414C184.898 332.742 185.188 331.5 185.766 330.688C186.344 329.875 187.25 329.469 188.484 329.469C189.708 329.469 190.609 329.862 191.188 330.648C191.766 331.43 192.062 332.638 192.078 334.273V336.148ZM190.633 334.172C190.633 332.948 190.461 332.057 190.117 331.5C189.773 330.938 189.229 330.656 188.484 330.656C187.745 330.656 187.206 330.935 186.867 331.492C186.529 332.049 186.354 332.906 186.344 334.062V336.375C186.344 337.604 186.521 338.513 186.875 339.102C187.234 339.685 187.776 339.977 188.5 339.977C189.214 339.977 189.742 339.701 190.086 339.148C190.435 338.596 190.617 337.727 190.633 336.539V334.172Z" fill="#F472B6" fill-opacity="0.87"/>
<path d="M225.913 334.609H226.998C227.681 334.599 228.217 334.419 228.608 334.07C228.998 333.721 229.194 333.25 229.194 332.656C229.194 331.323 228.53 330.656 227.202 330.656C226.577 330.656 226.077 330.836 225.702 331.195C225.332 331.549 225.147 332.021 225.147 332.609H223.702C223.702 331.708 224.03 330.961 224.686 330.367C225.347 329.768 226.186 329.469 227.202 329.469C228.274 329.469 229.116 329.753 229.725 330.32C230.334 330.888 230.639 331.677 230.639 332.688C230.639 333.182 230.478 333.661 230.155 334.125C229.837 334.589 229.402 334.935 228.85 335.164C229.475 335.362 229.957 335.69 230.295 336.148C230.639 336.607 230.811 337.167 230.811 337.828C230.811 338.849 230.478 339.659 229.811 340.258C229.144 340.857 228.277 341.156 227.209 341.156C226.142 341.156 225.272 340.867 224.6 340.289C223.933 339.711 223.6 338.948 223.6 338H225.053C225.053 338.599 225.248 339.078 225.639 339.438C226.03 339.797 226.553 339.977 227.209 339.977C227.907 339.977 228.441 339.794 228.811 339.43C229.181 339.065 229.366 338.542 229.366 337.859C229.366 337.198 229.163 336.69 228.756 336.336C228.35 335.982 227.764 335.799 226.998 335.789H225.913V334.609ZM237.695 341H236.242V331.367L233.328 332.438V331.125L237.469 329.57H237.695V341Z" fill="#F472B6" fill-opacity="0.87"/>
<rect x="304" y="312" width="48" height="48" fill="#33334E"/>
</svg>
