<svg width="118" height="24" viewBox="0 0 118 24" fill="none" xmlns="http://www.w3.org/2000/svg">
<path d="M110.659 20C111.708 20 112.56 19.1047 112.56 18H108.757C108.757 19.1047 109.609 20 110.659 20ZM117.061 15.3216C116.487 14.6728 115.412 13.6969 115.412 10.5C115.412 8.07188 113.793 6.12813 111.609 5.65125V5C111.609 4.44781 111.184 4 110.659 4C110.134 4 109.708 4.44781 109.708 5V5.65125C107.524 6.12813 105.905 8.07188 105.905 10.5C105.905 13.6969 104.83 14.6728 104.256 15.3216C104.078 15.5231 103.999 15.7641 104 16C104.003 16.5125 104.386 17 104.954 17H116.363C116.931 17 117.314 16.5125 117.317 16C117.319 15.7641 117.24 15.5228 117.061 15.3216V15.3216Z" fill="#389961"/>
<ellipse cx="113.854" cy="7" rx="2.85366" ry="3" fill="#D7D4D4"/>
<rect width="91" height="24" rx="7" fill="#27273C"/>
<path d="M17.6159 10.5C17.6159 13.7114 15.1485 16.25 12.1829 16.25C9.21731 16.25 6.75 13.7114 6.75 10.5C6.75 7.28858 9.21731 4.75 12.1829 4.75C15.1485 4.75 17.6159 7.28858 17.6159 10.5Z" stroke="#389961" stroke-width="1.5"/>
<path d="M16.4634 15L20.2683 19" stroke="#389961" stroke-width="1.5" stroke-linecap="round"/>
</svg>
