<svg width="250" height="267" viewBox="0 0 250 267" fill="none" xmlns="http://www.w3.org/2000/svg">
<rect width="242" height="267" rx="8" fill="#27273C"/>
<path d="M20.624 34.192C19.7173 34.192 18.944 34.0213 18.304 33.68C17.664 33.328 17.12 32.848 16.672 32.24L17.664 31.408C18.0587 31.9307 18.496 32.3307 18.976 32.608C19.456 32.8747 20.0213 33.008 20.672 33.008C21.472 33.008 22.08 32.816 22.496 32.432C22.9227 32.048 23.136 31.536 23.136 30.896C23.136 30.3627 22.976 29.952 22.656 29.664C22.336 29.376 21.808 29.1467 21.072 28.976L20.16 28.768C19.136 28.5333 18.352 28.1813 17.808 27.712C17.2747 27.232 17.008 26.56 17.008 25.696C17.008 25.2053 17.0987 24.768 17.28 24.384C17.4613 24 17.712 23.68 18.032 23.424C18.3627 23.168 18.752 22.976 19.2 22.848C19.6587 22.7093 20.16 22.64 20.704 22.64C21.5467 22.64 22.2667 22.7947 22.864 23.104C23.472 23.4133 23.984 23.8667 24.4 24.464L23.392 25.2C23.0827 24.7733 22.7093 24.4373 22.272 24.192C21.8347 23.9467 21.2907 23.824 20.64 23.824C19.9253 23.824 19.36 23.9787 18.944 24.288C18.5387 24.5867 18.336 25.04 18.336 25.648C18.336 26.1813 18.5067 26.5867 18.848 26.864C19.2 27.1307 19.728 27.344 20.432 27.504L21.344 27.712C22.4427 27.9573 23.2373 28.3307 23.728 28.832C24.2187 29.3333 24.464 30 24.464 30.832C24.464 31.344 24.3733 31.808 24.192 32.224C24.0213 32.64 23.7707 32.992 23.44 33.28C23.1093 33.568 22.704 33.792 22.224 33.952C21.7547 34.112 21.2213 34.192 20.624 34.192ZM27.2249 34V22.832H34.0409V24.016H28.5689V27.76H33.7209V28.944H28.5689V32.816H34.0409V34H27.2249ZM39.697 27.184L38.353 24.704H38.305V34H36.993V22.832H38.545L42.625 29.648L43.969 32.128H44.017V22.832H45.329V34H43.777L39.697 27.184ZM51.8815 34.192C50.9748 34.192 50.2015 34.0213 49.5615 33.68C48.9215 33.328 48.3775 32.848 47.9295 32.24L48.9215 31.408C49.3162 31.9307 49.7535 32.3307 50.2335 32.608C50.7135 32.8747 51.2788 33.008 51.9295 33.008C52.7295 33.008 53.3375 32.816 53.7535 32.432C54.1802 32.048 54.3935 31.536 54.3935 30.896C54.3935 30.3627 54.2335 29.952 53.9135 29.664C53.5935 29.376 53.0655 29.1467 52.3295 28.976L51.4175 28.768C50.3935 28.5333 49.6095 28.1813 49.0655 27.712C48.5322 27.232 48.2655 26.56 48.2655 25.696C48.2655 25.2053 48.3562 24.768 48.5375 24.384C48.7188 24 48.9695 23.68 49.2895 23.424C49.6202 23.168 50.0095 22.976 50.4575 22.848C50.9162 22.7093 51.4175 22.64 51.9615 22.64C52.8042 22.64 53.5242 22.7947 54.1215 23.104C54.7295 23.4133 55.2415 23.8667 55.6575 24.464L54.6495 25.2C54.3402 24.7733 53.9668 24.4373 53.5295 24.192C53.0922 23.9467 52.5482 23.824 51.8975 23.824C51.1828 23.824 50.6175 23.9787 50.2015 24.288C49.7962 24.5867 49.5935 25.04 49.5935 25.648C49.5935 26.1813 49.7642 26.5867 50.1055 26.864C50.4575 27.1307 50.9855 27.344 51.6895 27.504L52.6015 27.712C53.7002 27.9573 54.4948 28.3307 54.9855 28.832C55.4762 29.3333 55.7215 30 55.7215 30.832C55.7215 31.344 55.6308 31.808 55.4495 32.224C55.2788 32.64 55.0282 32.992 54.6975 33.28C54.3668 33.568 53.9615 33.792 53.4815 33.952C53.0122 34.112 52.4788 34.192 51.8815 34.192ZM58.4824 34V22.832H65.2984V24.016H59.8264V27.76H64.9784V28.944H59.8264V32.816H65.2984V34H58.4824ZM76.1865 34H74.5705L71.6425 29.312H71.6105L68.6825 34H67.1465L70.7945 28.32L67.2425 22.832H68.8585L71.6585 27.28H71.6905L74.5545 22.832H76.0905L72.5065 28.272L76.1865 34Z" fill="white"/>
<path d="M17.302 47.228H21.32C22.132 47.228 22.7667 47.4567 23.224 47.914C23.6907 48.3713 23.924 48.9827 23.924 49.748C23.924 50.112 23.8727 50.42 23.77 50.672C23.6673 50.924 23.5367 51.134 23.378 51.302C23.2193 51.4607 23.0467 51.582 22.86 51.666C22.6733 51.7407 22.5007 51.792 22.342 51.82V51.904C22.5193 51.9133 22.7153 51.96 22.93 52.044C23.154 52.128 23.364 52.2633 23.56 52.45C23.756 52.6273 23.9193 52.8607 24.05 53.15C24.19 53.43 24.26 53.7707 24.26 54.172C24.26 54.5733 24.1947 54.9467 24.064 55.292C23.9427 55.6373 23.77 55.936 23.546 56.188C23.322 56.44 23.056 56.6407 22.748 56.79C22.44 56.93 22.104 57 21.74 57H17.302V47.228ZM18.478 55.964H21.376C21.88 55.964 22.2767 55.838 22.566 55.586C22.8553 55.3247 23 54.9467 23 54.452V53.976C23 53.4813 22.8553 53.108 22.566 52.856C22.2767 52.5947 21.88 52.464 21.376 52.464H18.478V55.964ZM18.478 51.456H21.18C21.6467 51.456 22.0107 51.3393 22.272 51.106C22.5333 50.8727 22.664 50.5367 22.664 50.098V49.622C22.664 49.1833 22.5333 48.8473 22.272 48.614C22.0107 48.3807 21.6467 48.264 21.18 48.264H18.478V51.456ZM29.4425 57.168C28.6492 57.168 27.9725 57.0187 27.4125 56.72C26.8525 56.412 26.3765 55.992 25.9845 55.46L26.8525 54.732C27.1978 55.1893 27.5805 55.5393 28.0005 55.782C28.4205 56.0153 28.9152 56.132 29.4845 56.132C30.1845 56.132 30.7165 55.964 31.0805 55.628C31.4538 55.292 31.6405 54.844 31.6405 54.284C31.6405 53.8173 31.5005 53.458 31.2205 53.206C30.9405 52.954 30.4785 52.7533 29.8345 52.604L29.0365 52.422C28.1405 52.2167 27.4545 51.9087 26.9785 51.498C26.5118 51.078 26.2785 50.49 26.2785 49.734C26.2785 49.3047 26.3578 48.922 26.5165 48.586C26.6752 48.25 26.8945 47.97 27.1745 47.746C27.4638 47.522 27.8045 47.354 28.1965 47.242C28.5978 47.1207 29.0365 47.06 29.5125 47.06C30.2498 47.06 30.8798 47.1953 31.4025 47.466C31.9345 47.7367 32.3825 48.1333 32.7465 48.656L31.8645 49.3C31.5938 48.9267 31.2672 48.6327 30.8845 48.418C30.5018 48.2033 30.0258 48.096 29.4565 48.096C28.8312 48.096 28.3365 48.2313 27.9725 48.502C27.6178 48.7633 27.4405 49.16 27.4405 49.692C27.4405 50.1587 27.5898 50.5133 27.8885 50.756C28.1965 50.9893 28.6585 51.176 29.2745 51.316L30.0725 51.498C31.0338 51.7127 31.7292 52.0393 32.1585 52.478C32.5878 52.9167 32.8025 53.5 32.8025 54.228C32.8025 54.676 32.7232 55.082 32.5645 55.446C32.4152 55.81 32.1958 56.118 31.9065 56.37C31.6172 56.622 31.2625 56.818 30.8425 56.958C30.4318 57.098 29.9652 57.168 29.4425 57.168ZM35.0833 57V47.228H41.0473V48.264H36.2593V51.54H40.7673V52.576H36.2593V55.964H41.0473V57H35.0833ZM46.592 57V56.02H47.964V48.208H46.592V47.228H50.512V48.208H49.14V56.02H50.512V57H46.592ZM52.7974 57V49.776H53.9174V50.952H53.9734C54.1508 50.5413 54.3981 50.2147 54.7154 49.972C55.0421 49.7293 55.4761 49.608 56.0174 49.608C56.7641 49.608 57.3521 49.8507 57.7814 50.336C58.2201 50.812 58.4394 51.4887 58.4394 52.366V57H57.3194V52.562C57.3194 51.2647 56.7734 50.616 55.6814 50.616C55.4574 50.616 55.2381 50.644 55.0234 50.7C54.8181 50.756 54.6314 50.84 54.4634 50.952C54.2954 51.064 54.1601 51.2087 54.0574 51.386C53.9641 51.554 53.9174 51.7547 53.9174 51.988V57H52.7974ZM65.6245 55.824H65.5685C65.1298 56.72 64.4251 57.168 63.4545 57.168C63.0065 57.168 62.6005 57.0793 62.2365 56.902C61.8725 56.7247 61.5598 56.4727 61.2985 56.146C61.0465 55.8193 60.8505 55.4227 60.7105 54.956C60.5798 54.4893 60.5145 53.9667 60.5145 53.388C60.5145 52.8093 60.5798 52.2867 60.7105 51.82C60.8505 51.3533 61.0465 50.9567 61.2985 50.63C61.5598 50.3033 61.8725 50.0513 62.2365 49.874C62.6005 49.6967 63.0065 49.608 63.4545 49.608C63.9585 49.608 64.3878 49.72 64.7425 49.944C65.1065 50.1587 65.3818 50.4947 65.5685 50.952H65.6245V46.64H66.7445V57H65.6245V55.824ZM63.7625 56.16C64.0145 56.16 64.2525 56.1273 64.4765 56.062C64.7098 55.9967 64.9105 55.9033 65.0785 55.782C65.2465 55.6513 65.3771 55.4973 65.4705 55.32C65.5731 55.1333 65.6245 54.9233 65.6245 54.69V52.002C65.6245 51.806 65.5731 51.624 65.4705 51.456C65.3771 51.2787 65.2465 51.1293 65.0785 51.008C64.9105 50.8867 64.7098 50.7933 64.4765 50.728C64.2525 50.6533 64.0145 50.616 63.7625 50.616C63.1278 50.616 62.6285 50.8167 62.2645 51.218C61.9005 51.61 61.7185 52.128 61.7185 52.772V54.004C61.7185 54.648 61.9005 55.1707 62.2645 55.572C62.6285 55.964 63.1278 56.16 63.7625 56.16ZM72.0915 57.168C71.5969 57.168 71.1489 57.0793 70.7475 56.902C70.3555 56.7247 70.0149 56.4727 69.7255 56.146C69.4455 55.81 69.2262 55.4133 69.0675 54.956C68.9182 54.4893 68.8435 53.9667 68.8435 53.388C68.8435 52.8187 68.9182 52.3007 69.0675 51.834C69.2262 51.3673 69.4455 50.9707 69.7255 50.644C70.0149 50.308 70.3555 50.0513 70.7475 49.874C71.1489 49.6967 71.5969 49.608 72.0915 49.608C72.5769 49.608 73.0109 49.6967 73.3935 49.874C73.7762 50.0513 74.1029 50.2987 74.3735 50.616C74.6442 50.924 74.8495 51.2927 74.9895 51.722C75.1389 52.1513 75.2135 52.6227 75.2135 53.136V53.668H70.0195V54.004C70.0195 54.312 70.0662 54.6013 70.1595 54.872C70.2622 55.1333 70.4022 55.362 70.5795 55.558C70.7662 55.754 70.9902 55.908 71.2515 56.02C71.5222 56.132 71.8255 56.188 72.1615 56.188C72.6189 56.188 73.0155 56.0807 73.3515 55.866C73.6969 55.6513 73.9629 55.3433 74.1495 54.942L74.9475 55.516C74.7142 56.0107 74.3502 56.412 73.8555 56.72C73.3609 57.0187 72.7729 57.168 72.0915 57.168ZM72.0915 50.546C71.7835 50.546 71.5035 50.602 71.2515 50.714C70.9995 50.8167 70.7802 50.966 70.5935 51.162C70.4162 51.358 70.2762 51.5913 70.1735 51.862C70.0709 52.1233 70.0195 52.4127 70.0195 52.73V52.828H74.0095V52.674C74.0095 52.03 73.8322 51.5167 73.4775 51.134C73.1322 50.742 72.6702 50.546 72.0915 50.546ZM76.2491 57L78.9231 53.36L76.3611 49.776H77.6771L79.5111 52.464H79.5531L81.4571 49.776H82.7031L80.1551 53.276L82.7591 57H81.4431L79.5671 54.172H79.5251L77.4951 57H76.2491Z" fill="#94A3B3"/>
<rect x="161" y="12" width="67" height="30" fill="#20A256"/>
<path d="M185.673 23.624H189.117C189.813 23.624 190.357 23.82 190.749 24.212C191.149 24.604 191.349 25.128 191.349 25.784C191.349 26.096 191.305 26.36 191.217 26.576C191.129 26.792 191.017 26.972 190.881 27.116C190.745 27.252 190.597 27.356 190.437 27.428C190.277 27.492 190.129 27.536 189.993 27.56V27.632C190.145 27.64 190.313 27.68 190.497 27.752C190.689 27.824 190.869 27.94 191.037 28.1C191.205 28.252 191.345 28.452 191.457 28.7C191.577 28.94 191.637 29.232 191.637 29.576C191.637 29.92 191.581 30.24 191.469 30.536C191.365 30.832 191.217 31.088 191.025 31.304C190.833 31.52 190.605 31.692 190.341 31.82C190.077 31.94 189.789 32 189.477 32H185.673V23.624ZM186.681 31.112H189.165C189.597 31.112 189.937 31.004 190.185 30.788C190.433 30.564 190.557 30.24 190.557 29.816V29.408C190.557 28.984 190.433 28.664 190.185 28.448C189.937 28.224 189.597 28.112 189.165 28.112H186.681V31.112ZM186.681 27.248H188.997C189.397 27.248 189.709 27.148 189.933 26.948C190.157 26.748 190.269 26.46 190.269 26.084V25.676C190.269 25.3 190.157 25.012 189.933 24.812C189.709 24.612 189.397 24.512 188.997 24.512H186.681V27.248ZM194.861 23.624V28.808C194.861 29.608 195.009 30.216 195.305 30.632C195.601 31.04 196.121 31.244 196.865 31.244C197.609 31.244 198.129 31.04 198.425 30.632C198.721 30.216 198.869 29.608 198.869 28.808V23.624H199.877V28.568C199.877 29.176 199.821 29.704 199.709 30.152C199.605 30.6 199.433 30.972 199.193 31.268C198.953 31.564 198.637 31.784 198.245 31.928C197.861 32.072 197.389 32.144 196.829 32.144C196.269 32.144 195.797 32.072 195.413 31.928C195.037 31.784 194.733 31.564 194.501 31.268C194.269 30.972 194.101 30.6 193.997 30.152C193.901 29.704 193.853 29.176 193.853 28.568V23.624H194.861ZM204.366 32V28.688L201.486 23.624H202.638L204.87 27.656H204.906L207.138 23.624H208.29L205.374 28.652V32H204.366Z" fill="#33334E"/>
<g opacity="0.24" clip-path="url(#clip0)">
<path d="M-168.111 235.205C-187.555 235.205 -178.764 206.081 -205.394 206.081C-230.693 206.081 -222.704 246.694 -242.677 246.694C-267.643 246.694 -255.327 231.731 -279.96 231.731C-304.26 232.266 -292.942 253.106 -317.243 253.106V267H242V109.894C216.701 109.894 230.016 132.07 204.717 132.337C179.418 132.605 194.822 117.375 167.434 117.375C144.133 117.375 155.118 141.956 130.151 141.956C105.185 141.956 114.173 169.744 92.8686 169.744C69.3139 169.744 83.8625 132.337 55.5858 132.337C27.309 132.337 44.0242 177.759 18.3029 177.759C-8.66058 177.759 5.98625 153.712 -18.9799 153.712C-46.2763 153.712 -27.9865 179.63 -55.9299 179.63C-87.1232 179.63 -67.9137 210.356 -93.5457 210.356C-119.178 210.356 -106.774 192.989 -130.828 192.989C-156.128 192.989 -143.328 235.205 -168.111 235.205Z" fill="url(#paint0_linear)"/>
</g>
<g clip-path="url(#clip1)">
<path d="M242 109.894C216.701 109.894 230.016 132.07 204.717 132.337C179.418 132.605 194.822 117.375 167.434 117.375C144.133 117.375 155.118 141.956 130.151 141.956C105.185 141.956 114.173 169.744 92.8686 169.744C69.3139 169.744 83.8625 132.337 55.5858 132.337C27.309 132.337 44.0242 177.759 18.3029 177.759C-8.66059 177.759 5.98625 153.712 -18.9799 153.712C-46.2763 153.712 -27.9865 179.63 -55.9299 179.63C-87.1232 179.63 -67.9137 210.356 -93.5456 210.356C-119.178 210.356 -106.774 192.989 -130.828 192.989C-156.128 192.989 -143.328 235.205 -168.111 235.205C-187.555 235.205 -178.764 206.081 -205.394 206.081C-230.693 206.081 -222.704 246.694 -242.677 246.694C-267.643 246.694 -255.327 231.731 -279.96 231.731C-304.26 232.266 -292.942 253.106 -317.243 253.106" stroke="#0057FF" stroke-width="1.33153" stroke-linecap="round" stroke-linejoin="round"/>
</g>
<rect width="8" height="8" rx="4" transform="matrix(-1 0 0 1 245.984 105.487)" fill="#FEDF9A"/>
<rect width="5" height="5" rx="2.5" transform="matrix(-1 0 0 1 244.652 106.818)" fill="#27273C"/>
<rect width="8" height="8" rx="4" transform="matrix(-1 0 0 1 22.2867 173.352)" fill="#FEDF9A"/>
<rect width="5" height="5" rx="2.5" transform="matrix(-1 0 0 1 20.9552 174.684)" fill="#27273C"/>
<rect width="8" height="8" rx="4" transform="matrix(-1 0 0 1 59.5695 127.93)" fill="#FEDF9A"/>
<rect width="5" height="5" rx="2.5" transform="matrix(-1 0 0 1 58.238 129.262)" fill="#27273C"/>
<rect x="170" y="104" width="8" height="8" rx="1" transform="rotate(45 170 104)" fill="white"/>
<rect x="140" y="78" width="60" height="32" rx="3" fill="white"/>
<path d="M149.733 99V98.112H152.073V91.368H151.989L149.877 93.336L149.289 92.7L151.509 90.624H153.081V98.112H155.241V99H149.733ZM160.772 99V97.356H156.728V96.468L160.232 90.624H161.732V96.516H162.944V97.356H161.732V99H160.772ZM157.676 96.516H160.772V91.404H160.712L157.676 96.516ZM165.5 97.596C165.756 97.596 165.94 97.664 166.052 97.8C166.172 97.928 166.232 98.096 166.232 98.304V98.472C166.232 98.8 166.136 99.16 165.944 99.552C165.752 99.952 165.484 100.3 165.14 100.596H164.336C164.576 100.34 164.768 100.096 164.912 99.864C165.064 99.64 165.172 99.388 165.236 99.108C165.076 99.068 164.956 98.992 164.876 98.88C164.804 98.768 164.768 98.632 164.768 98.472V98.304C164.768 98.096 164.824 97.928 164.936 97.8C165.056 97.664 165.244 97.596 165.5 97.596ZM173.513 91.512H169.841L169.601 94.704H169.685C169.885 94.424 170.109 94.2 170.357 94.032C170.613 93.864 170.961 93.78 171.401 93.78C171.761 93.78 172.093 93.84 172.397 93.96C172.701 94.08 172.965 94.252 173.189 94.476C173.413 94.692 173.585 94.96 173.705 95.28C173.833 95.6 173.897 95.964 173.897 96.372C173.897 96.78 173.833 97.156 173.705 97.5C173.577 97.836 173.389 98.128 173.141 98.376C172.901 98.616 172.605 98.804 172.253 98.94C171.909 99.076 171.517 99.144 171.077 99.144C170.725 99.144 170.413 99.104 170.141 99.024C169.877 98.944 169.641 98.836 169.433 98.7C169.225 98.564 169.041 98.412 168.881 98.244C168.729 98.076 168.589 97.9 168.461 97.716L169.217 97.14C169.321 97.308 169.429 97.46 169.541 97.596C169.661 97.732 169.789 97.848 169.925 97.944C170.069 98.04 170.233 98.116 170.417 98.172C170.601 98.22 170.821 98.244 171.077 98.244C171.653 98.244 172.089 98.092 172.385 97.788C172.681 97.484 172.829 97.056 172.829 96.504V96.384C172.829 95.832 172.681 95.404 172.385 95.1C172.089 94.796 171.653 94.644 171.077 94.644C170.693 94.644 170.389 94.716 170.165 94.86C169.949 94.996 169.753 95.16 169.577 95.352L168.725 95.232L169.025 90.624H173.513V91.512ZM178.732 99.144C177.732 99.144 177 98.764 176.536 98.004C176.08 97.244 175.852 96.18 175.852 94.812C175.852 93.444 176.08 92.38 176.536 91.62C177 90.86 177.732 90.48 178.732 90.48C179.732 90.48 180.46 90.86 180.916 91.62C181.38 92.38 181.612 93.444 181.612 94.812C181.612 96.18 181.38 97.244 180.916 98.004C180.46 98.764 179.732 99.144 178.732 99.144ZM178.732 98.268C179.06 98.268 179.34 98.2 179.572 98.064C179.804 97.928 179.992 97.736 180.136 97.488C180.28 97.24 180.384 96.948 180.448 96.612C180.52 96.276 180.556 95.904 180.556 95.496V94.128C180.556 93.72 180.52 93.348 180.448 93.012C180.384 92.676 180.28 92.384 180.136 92.136C179.992 91.888 179.804 91.696 179.572 91.56C179.34 91.424 179.06 91.356 178.732 91.356C178.404 91.356 178.124 91.424 177.892 91.56C177.66 91.696 177.472 91.888 177.328 92.136C177.184 92.384 177.076 92.676 177.004 93.012C176.94 93.348 176.908 93.72 176.908 94.128V95.496C176.908 95.904 176.94 96.276 177.004 96.612C177.076 96.948 177.184 97.24 177.328 97.488C177.472 97.736 177.66 97.928 177.892 98.064C178.124 98.2 178.404 98.268 178.732 98.268ZM186.328 99.144C185.328 99.144 184.596 98.764 184.132 98.004C183.676 97.244 183.448 96.18 183.448 94.812C183.448 93.444 183.676 92.38 184.132 91.62C184.596 90.86 185.328 90.48 186.328 90.48C187.328 90.48 188.056 90.86 188.512 91.62C188.976 92.38 189.208 93.444 189.208 94.812C189.208 96.18 188.976 97.244 188.512 98.004C188.056 98.764 187.328 99.144 186.328 99.144ZM186.328 98.268C186.656 98.268 186.936 98.2 187.168 98.064C187.4 97.928 187.588 97.736 187.732 97.488C187.876 97.24 187.98 96.948 188.044 96.612C188.116 96.276 188.152 95.904 188.152 95.496V94.128C188.152 93.72 188.116 93.348 188.044 93.012C187.98 92.676 187.876 92.384 187.732 92.136C187.588 91.888 187.4 91.696 187.168 91.56C186.936 91.424 186.656 91.356 186.328 91.356C186 91.356 185.72 91.424 185.488 91.56C185.256 91.696 185.068 91.888 184.924 92.136C184.78 92.384 184.672 92.676 184.6 93.012C184.536 93.348 184.504 93.72 184.504 94.128V95.496C184.504 95.904 184.536 96.276 184.6 96.612C184.672 96.948 184.78 97.24 184.924 97.488C185.068 97.736 185.256 97.928 185.488 98.064C185.72 98.2 186 98.268 186.328 98.268Z" fill="#27273C"/>
<defs>
<linearGradient id="paint0_linear" x1="-37.6214" y1="109.894" x2="-37.6214" y2="267" gradientUnits="userSpaceOnUse">
<stop stop-color="#0047FF"/>
<stop offset="1" stop-color="#33334E"/>
</linearGradient>
<clipPath id="clip0">
<rect width="242" height="156.038" fill="white" transform="matrix(-1 0 0 1 242 110.962)"/>
</clipPath>
<clipPath id="clip1">
<rect width="242" height="171" fill="white" transform="matrix(-1 0 0 1 242 96)"/>
</clipPath>
</defs>
</svg>
